<mxfile host="app.diagrams.net" agent="Mozilla/5.0 (X11; Ubuntu; Linux x86_64; rv:140.0) Gecko/20100101 Firefox/140.0" version="28.0.3">
  <diagram name="Page-1" id="Lm2m_auR1M7aOtymmEws">
    <mxGraphModel dx="563" dy="296" grid="1" gridSize="1" guides="1" tooltips="1" connect="1" arrows="1" fold="1" page="1" pageScale="1" pageWidth="595" pageHeight="842" math="1" shadow="0">
      <root>
        <mxCell id="0" />
        <mxCell id="1" parent="0" />
        <mxCell id="u5LdR0DTFu8338qAbrxq-321" value="" style="rounded=1;whiteSpace=wrap;html=1;fillColor=#dae8fc;strokeColor=#000000;" vertex="1" parent="1">
          <mxGeometry x="147" y="53" width="235" height="137" as="geometry" />
        </mxCell>
        <mxCell id="u5LdR0DTFu8338qAbrxq-265" value="" style="ellipse;whiteSpace=wrap;html=1;aspect=fixed;fillColor=#e1d5e7;strokeColor=#000000;strokeWidth=0.3;" vertex="1" parent="1">
          <mxGeometry x="157" y="137.3" width="12.5" height="12.5" as="geometry" />
        </mxCell>
        <mxCell id="u5LdR0DTFu8338qAbrxq-301" value="&lt;font style=&quot;font-size: 6px;&quot;&gt;$$\geq$$&lt;/font&gt;" style="text;html=1;align=center;verticalAlign=middle;whiteSpace=wrap;rounded=0;fillColor=none;strokeColor=none;" vertex="1" parent="1">
          <mxGeometry x="155.75" y="135.43" width="15" height="15" as="geometry" />
        </mxCell>
        <mxCell id="u5LdR0DTFu8338qAbrxq-231" value="" style="ellipse;whiteSpace=wrap;html=1;aspect=fixed;fillColor=#e1d5e7;strokeColor=#000000;strokeWidth=1;" vertex="1" parent="1">
          <mxGeometry x="400" y="131" width="19.75" height="19.75" as="geometry" />
        </mxCell>
        <mxCell id="u5LdR0DTFu8338qAbrxq-228" value="" style="ellipse;whiteSpace=wrap;html=1;aspect=fixed;fillColor=#e1d5e7;strokeColor=#000000;strokeWidth=0.3;" vertex="1" parent="1">
          <mxGeometry x="339.25" y="163.75" width="12.5" height="12.5" as="geometry" />
        </mxCell>
        <mxCell id="u5LdR0DTFu8338qAbrxq-226" value="" style="ellipse;whiteSpace=wrap;html=1;aspect=fixed;fillColor=#e1d5e7;strokeColor=#000000;strokeWidth=0.3;" vertex="1" parent="1">
          <mxGeometry x="339.25" y="103.13" width="12.5" height="12.5" as="geometry" />
        </mxCell>
        <mxCell id="u5LdR0DTFu8338qAbrxq-264" value="" style="ellipse;whiteSpace=wrap;html=1;aspect=fixed;fillColor=#e1d5e7;strokeColor=#000000;strokeWidth=0.3;" vertex="1" parent="1">
          <mxGeometry x="157" y="112.3" width="12.5" height="12.5" as="geometry" />
        </mxCell>
        <mxCell id="u5LdR0DTFu8338qAbrxq-261" value="" style="ellipse;whiteSpace=wrap;html=1;aspect=fixed;fillColor=#e1d5e7;strokeColor=#000000;strokeWidth=0.3;" vertex="1" parent="1">
          <mxGeometry x="293" y="126.93" width="12.5" height="12.5" as="geometry" />
        </mxCell>
        <mxCell id="u5LdR0DTFu8338qAbrxq-216" value="" style="ellipse;whiteSpace=wrap;html=1;aspect=fixed;fillColor=#e1d5e7;strokeColor=#000000;strokeWidth=0.3;" vertex="1" parent="1">
          <mxGeometry x="293" y="77.13" width="12.5" height="12.5" as="geometry" />
        </mxCell>
        <mxCell id="u5LdR0DTFu8338qAbrxq-217" value="&lt;font style=&quot;font-size: 6px;&quot;&gt;$$\geq$$&lt;/font&gt;" style="text;html=1;align=center;verticalAlign=middle;whiteSpace=wrap;rounded=0;fillColor=none;strokeColor=none;" vertex="1" parent="1">
          <mxGeometry x="291.75" y="74.63" width="15" height="15" as="geometry" />
        </mxCell>
        <mxCell id="u5LdR0DTFu8338qAbrxq-269" value="&lt;font style=&quot;font-size: 6px;&quot;&gt;$$\geq$$&lt;/font&gt;" style="text;html=1;align=center;verticalAlign=middle;whiteSpace=wrap;rounded=0;fillColor=none;strokeColor=none;" vertex="1" parent="1">
          <mxGeometry x="291.75" y="124.42999999999999" width="15" height="15" as="geometry" />
        </mxCell>
        <mxCell id="u5LdR0DTFu8338qAbrxq-208" value="" style="ellipse;whiteSpace=wrap;html=1;aspect=fixed;fillColor=#e1d5e7;strokeColor=#000000;strokeWidth=0.3;" vertex="1" parent="1">
          <mxGeometry x="246.25" y="76.5" width="12.5" height="12.5" as="geometry" />
        </mxCell>
        <mxCell id="u5LdR0DTFu8338qAbrxq-192" value="" style="ellipse;whiteSpace=wrap;html=1;aspect=fixed;fillColor=#e1d5e7;strokeColor=#000000;strokeWidth=0.3;" vertex="1" parent="1">
          <mxGeometry x="197.25" y="88.13" width="12.5" height="12.5" as="geometry" />
        </mxCell>
        <mxCell id="u5LdR0DTFu8338qAbrxq-190" value="" style="ellipse;whiteSpace=wrap;html=1;aspect=fixed;fillColor=#e1d5e7;strokeColor=#000000;strokeWidth=0.3;" vertex="1" parent="1">
          <mxGeometry x="197.25" y="63.129999999999995" width="12.5" height="12.5" as="geometry" />
        </mxCell>
        <mxCell id="u5LdR0DTFu8338qAbrxq-169" value="" style="ellipse;whiteSpace=wrap;html=1;aspect=fixed;fillColor=#e1d5e7;strokeColor=#000000;strokeWidth=0.3;" vertex="1" parent="1">
          <mxGeometry x="157" y="62.5" width="12.5" height="12.5" as="geometry" />
        </mxCell>
        <mxCell id="u5LdR0DTFu8338qAbrxq-174" value="" style="ellipse;whiteSpace=wrap;html=1;aspect=fixed;fillColor=#e1d5e7;strokeColor=#000000;strokeWidth=0.3;" vertex="1" parent="1">
          <mxGeometry x="157" y="87.5" width="12.5" height="12.5" as="geometry" />
        </mxCell>
        <mxCell id="u5LdR0DTFu8338qAbrxq-232" value="&lt;font style=&quot;font-size: 6px;&quot;&gt;$$-$$&lt;/font&gt;" style="text;html=1;align=center;verticalAlign=middle;whiteSpace=wrap;rounded=0;fillColor=none;strokeColor=none;" vertex="1" parent="1">
          <mxGeometry x="404.88" y="139.75" width="10" height="2.25" as="geometry" />
        </mxCell>
        <mxCell id="u5LdR0DTFu8338qAbrxq-191" value="&lt;font style=&quot;font-size: 6px;&quot;&gt;$$\geq$$&lt;/font&gt;" style="text;html=1;align=center;verticalAlign=middle;whiteSpace=wrap;rounded=0;fillColor=none;strokeColor=none;" vertex="1" parent="1">
          <mxGeometry x="196" y="60.629999999999995" width="15" height="15" as="geometry" />
        </mxCell>
        <mxCell id="u5LdR0DTFu8338qAbrxq-193" value="&lt;font style=&quot;font-size: 6px;&quot;&gt;$$\geq$$&lt;/font&gt;" style="text;html=1;align=center;verticalAlign=middle;whiteSpace=wrap;rounded=0;fillColor=none;strokeColor=none;" vertex="1" parent="1">
          <mxGeometry x="196" y="85.63" width="15" height="15" as="geometry" />
        </mxCell>
        <mxCell id="u5LdR0DTFu8338qAbrxq-209" value="&lt;font style=&quot;font-size: 6px;&quot;&gt;$$\geq$$&lt;/font&gt;" style="text;html=1;align=center;verticalAlign=middle;whiteSpace=wrap;rounded=0;fillColor=none;strokeColor=none;" vertex="1" parent="1">
          <mxGeometry x="245" y="74" width="15" height="15" as="geometry" />
        </mxCell>
        <mxCell id="u5LdR0DTFu8338qAbrxq-227" value="&lt;font style=&quot;font-size: 6px;&quot;&gt;$$\geq$$&lt;/font&gt;" style="text;html=1;align=center;verticalAlign=middle;whiteSpace=wrap;rounded=0;fillColor=none;strokeColor=none;" vertex="1" parent="1">
          <mxGeometry x="338" y="100.63" width="15" height="15" as="geometry" />
        </mxCell>
        <mxCell id="u5LdR0DTFu8338qAbrxq-229" value="&lt;font style=&quot;font-size: 6px;&quot;&gt;$$\geq$$&lt;/font&gt;" style="text;html=1;align=center;verticalAlign=middle;whiteSpace=wrap;rounded=0;fillColor=none;strokeColor=none;" vertex="1" parent="1">
          <mxGeometry x="338" y="162.13" width="15" height="15" as="geometry" />
        </mxCell>
        <mxCell id="u5LdR0DTFu8338qAbrxq-334" style="edgeStyle=orthogonalEdgeStyle;rounded=0;orthogonalLoop=1;jettySize=auto;html=1;entryX=0.5;entryY=1;entryDx=0;entryDy=0;endSize=1;endArrow=blockThin;endFill=1;" edge="1" parent="1" source="u5LdR0DTFu8338qAbrxq-1" target="u5LdR0DTFu8338qAbrxq-5">
          <mxGeometry relative="1" as="geometry" />
        </mxCell>
        <mxCell id="u5LdR0DTFu8338qAbrxq-1" value="&lt;font style=&quot;font-size: 10px;&quot; face=&quot;Helvetica&quot;&gt;BRAM&lt;/font&gt;" style="rounded=1;whiteSpace=wrap;html=1;fillColor=#ffe6cc;strokeColor=#000000;" vertex="1" parent="1">
          <mxGeometry x="30" y="89.88" width="70" height="100" as="geometry" />
        </mxCell>
        <mxCell id="u5LdR0DTFu8338qAbrxq-2" value="&lt;font style=&quot;font-size: 10px;&quot;&gt;5120 x 256-bit&lt;/font&gt;" style="text;html=1;align=center;verticalAlign=middle;whiteSpace=wrap;rounded=0;" vertex="1" parent="1">
          <mxGeometry x="25" y="119.88" width="80" height="10" as="geometry" />
        </mxCell>
        <mxCell id="u5LdR0DTFu8338qAbrxq-5" value="" style="rounded=0;whiteSpace=wrap;html=1;rotation=90;fillColor=#fff2cc;strokeColor=#000000;" vertex="1" parent="1">
          <mxGeometry x="74" y="129.88" width="100" height="20" as="geometry" />
        </mxCell>
        <mxCell id="u5LdR0DTFu8338qAbrxq-8" value="" style="triangle;whiteSpace=wrap;html=1;fillColor=#ffe6cc;strokeColor=#000000;" vertex="1" parent="1">
          <mxGeometry x="30" y="161.88" width="10" height="15" as="geometry" />
        </mxCell>
        <mxCell id="u5LdR0DTFu8338qAbrxq-3" value="" style="triangle;whiteSpace=wrap;html=1;fillColor=#fff2cc;strokeColor=#000000;rotation=-90;" vertex="1" parent="1">
          <mxGeometry x="119" y="176.88" width="10" height="15" as="geometry" />
        </mxCell>
        <mxCell id="u5LdR0DTFu8338qAbrxq-9" value="&lt;font style=&quot;font-size: 10px;&quot;&gt;10 x 16-bit&lt;/font&gt;&amp;nbsp;reg" style="text;html=1;align=center;verticalAlign=middle;whiteSpace=wrap;rounded=0;rotation=-90;" vertex="1" parent="1">
          <mxGeometry x="87.75" y="134.38" width="72.5" height="11" as="geometry" />
        </mxCell>
        <mxCell id="u5LdR0DTFu8338qAbrxq-170" value="" style="rounded=0;whiteSpace=wrap;html=1;strokeWidth=0.3;fillColor=#fff2cc;strokeColor=#000000;" vertex="1" parent="1">
          <mxGeometry x="271" y="160" width="10" height="20" as="geometry" />
        </mxCell>
        <mxCell id="u5LdR0DTFu8338qAbrxq-171" value="" style="triangle;whiteSpace=wrap;html=1;rotation=-90;strokeWidth=0.3;fillColor=#fff2cc;strokeColor=#000000;" vertex="1" parent="1">
          <mxGeometry x="272.75" y="174" width="6.5" height="5" as="geometry" />
        </mxCell>
        <mxCell id="u5LdR0DTFu8338qAbrxq-180" value="" style="rounded=0;whiteSpace=wrap;html=1;strokeWidth=0.3;fillColor=#fff2cc;strokeColor=#000000;" vertex="1" parent="1">
          <mxGeometry x="176" y="58.75" width="10" height="20" as="geometry" />
        </mxCell>
        <mxCell id="u5LdR0DTFu8338qAbrxq-181" value="" style="triangle;whiteSpace=wrap;html=1;rotation=-90;strokeWidth=0.3;fillColor=#fff2cc;strokeColor=#000000;" vertex="1" parent="1">
          <mxGeometry x="177.75" y="72.75" width="6.5" height="5" as="geometry" />
        </mxCell>
        <mxCell id="u5LdR0DTFu8338qAbrxq-182" value="" style="rounded=0;whiteSpace=wrap;html=1;strokeWidth=0.3;fillColor=#fff2cc;strokeColor=#000000;" vertex="1" parent="1">
          <mxGeometry x="176" y="83.75" width="10" height="20" as="geometry" />
        </mxCell>
        <mxCell id="u5LdR0DTFu8338qAbrxq-183" value="" style="triangle;whiteSpace=wrap;html=1;rotation=-90;strokeWidth=0.3;fillColor=#fff2cc;strokeColor=#000000;" vertex="1" parent="1">
          <mxGeometry x="177.75" y="97.75" width="6.5" height="5" as="geometry" />
        </mxCell>
        <mxCell id="u5LdR0DTFu8338qAbrxq-188" value="" style="rounded=0;whiteSpace=wrap;html=1;strokeWidth=0.3;fillColor=#fff2cc;strokeColor=#000000;" vertex="1" parent="1">
          <mxGeometry x="176" y="160" width="10" height="20" as="geometry" />
        </mxCell>
        <mxCell id="u5LdR0DTFu8338qAbrxq-189" value="" style="triangle;whiteSpace=wrap;html=1;rotation=-90;strokeWidth=0.3;fillColor=#fff2cc;strokeColor=#000000;" vertex="1" parent="1">
          <mxGeometry x="177.75" y="174" width="6.5" height="5" as="geometry" />
        </mxCell>
        <mxCell id="u5LdR0DTFu8338qAbrxq-198" value="" style="rounded=0;whiteSpace=wrap;html=1;strokeWidth=0.3;fillColor=#fff2cc;strokeColor=#000000;" vertex="1" parent="1">
          <mxGeometry x="222.25" y="59.379999999999995" width="10" height="20" as="geometry" />
        </mxCell>
        <mxCell id="u5LdR0DTFu8338qAbrxq-199" value="" style="triangle;whiteSpace=wrap;html=1;rotation=-90;strokeWidth=0.3;fillColor=#fff2cc;strokeColor=#000000;" vertex="1" parent="1">
          <mxGeometry x="224" y="73.38" width="6.5" height="5" as="geometry" />
        </mxCell>
        <mxCell id="u5LdR0DTFu8338qAbrxq-200" value="" style="rounded=0;whiteSpace=wrap;html=1;strokeWidth=0.3;fillColor=#fff2cc;strokeColor=#000000;" vertex="1" parent="1">
          <mxGeometry x="222.25" y="84.38" width="10" height="20" as="geometry" />
        </mxCell>
        <mxCell id="u5LdR0DTFu8338qAbrxq-201" value="" style="triangle;whiteSpace=wrap;html=1;rotation=-90;strokeWidth=0.3;fillColor=#fff2cc;strokeColor=#000000;" vertex="1" parent="1">
          <mxGeometry x="224" y="98.38" width="6.5" height="5" as="geometry" />
        </mxCell>
        <mxCell id="u5LdR0DTFu8338qAbrxq-206" value="" style="rounded=0;whiteSpace=wrap;html=1;strokeWidth=0.3;fillColor=#fff2cc;strokeColor=#000000;" vertex="1" parent="1">
          <mxGeometry x="222.25" y="160.63" width="10" height="20" as="geometry" />
        </mxCell>
        <mxCell id="u5LdR0DTFu8338qAbrxq-207" value="" style="triangle;whiteSpace=wrap;html=1;rotation=-90;strokeWidth=0.3;fillColor=#fff2cc;strokeColor=#000000;" vertex="1" parent="1">
          <mxGeometry x="224" y="174.63" width="6.5" height="5" as="geometry" />
        </mxCell>
        <mxCell id="u5LdR0DTFu8338qAbrxq-212" value="" style="rounded=0;whiteSpace=wrap;html=1;strokeWidth=0.3;fillColor=#fff2cc;strokeColor=#000000;" vertex="1" parent="1">
          <mxGeometry x="271.25" y="72.75" width="10" height="20" as="geometry" />
        </mxCell>
        <mxCell id="u5LdR0DTFu8338qAbrxq-213" value="" style="triangle;whiteSpace=wrap;html=1;rotation=-90;strokeWidth=0.3;fillColor=#fff2cc;strokeColor=#000000;" vertex="1" parent="1">
          <mxGeometry x="273" y="86.75" width="6.5" height="5" as="geometry" />
        </mxCell>
        <mxCell id="u5LdR0DTFu8338qAbrxq-218" value="" style="rounded=0;whiteSpace=wrap;html=1;strokeWidth=0.3;fillColor=#fff2cc;strokeColor=#000000;" vertex="1" parent="1">
          <mxGeometry x="318" y="73.38" width="10" height="20" as="geometry" />
        </mxCell>
        <mxCell id="u5LdR0DTFu8338qAbrxq-219" value="" style="triangle;whiteSpace=wrap;html=1;rotation=-90;strokeWidth=0.3;fillColor=#fff2cc;strokeColor=#000000;" vertex="1" parent="1">
          <mxGeometry x="319.75" y="87.38" width="6.5" height="5" as="geometry" />
        </mxCell>
        <mxCell id="u5LdR0DTFu8338qAbrxq-224" value="" style="rounded=0;whiteSpace=wrap;html=1;strokeWidth=0.3;fillColor=#fff2cc;strokeColor=#000000;" vertex="1" parent="1">
          <mxGeometry x="318" y="160" width="10" height="20" as="geometry" />
        </mxCell>
        <mxCell id="u5LdR0DTFu8338qAbrxq-225" value="" style="triangle;whiteSpace=wrap;html=1;rotation=-90;strokeWidth=0.3;fillColor=#fff2cc;strokeColor=#000000;" vertex="1" parent="1">
          <mxGeometry x="319.75" y="174" width="6.5" height="5" as="geometry" />
        </mxCell>
        <mxCell id="u5LdR0DTFu8338qAbrxq-230" value="" style="group" vertex="1" connectable="0" parent="1">
          <mxGeometry x="21" y="256" width="510" height="350" as="geometry" />
        </mxCell>
        <mxCell id="u5LdR0DTFu8338qAbrxq-11" style="edgeStyle=orthogonalEdgeStyle;rounded=0;orthogonalLoop=1;jettySize=auto;html=1;exitX=1;exitY=1;exitDx=0;exitDy=0;entryX=0;entryY=0.75;entryDx=0;entryDy=0;endArrow=blockThin;endFill=1;" edge="1" parent="u5LdR0DTFu8338qAbrxq-230" source="u5LdR0DTFu8338qAbrxq-13" target="u5LdR0DTFu8338qAbrxq-20">
          <mxGeometry relative="1" as="geometry" />
        </mxCell>
        <mxCell id="u5LdR0DTFu8338qAbrxq-12" style="edgeStyle=orthogonalEdgeStyle;rounded=0;orthogonalLoop=1;jettySize=auto;html=1;exitX=1;exitY=0;exitDx=0;exitDy=0;entryX=0;entryY=0.25;entryDx=0;entryDy=0;endArrow=blockThin;endFill=1;" edge="1" parent="u5LdR0DTFu8338qAbrxq-230" source="u5LdR0DTFu8338qAbrxq-13" target="u5LdR0DTFu8338qAbrxq-20">
          <mxGeometry relative="1" as="geometry" />
        </mxCell>
        <mxCell id="u5LdR0DTFu8338qAbrxq-13" value="" style="ellipse;whiteSpace=wrap;html=1;aspect=fixed;fillColor=#F0F0F0;" vertex="1" parent="u5LdR0DTFu8338qAbrxq-230">
          <mxGeometry x="40" y="20" width="30" height="30" as="geometry" />
        </mxCell>
        <mxCell id="u5LdR0DTFu8338qAbrxq-14" value="&lt;font style=&quot;font-size: 14px;&quot;&gt;$$x_0$$&lt;/font&gt;" style="text;html=1;align=center;verticalAlign=middle;whiteSpace=wrap;rounded=0;" vertex="1" parent="u5LdR0DTFu8338qAbrxq-230">
          <mxGeometry width="20" height="20" as="geometry" />
        </mxCell>
        <mxCell id="u5LdR0DTFu8338qAbrxq-15" value="&lt;font style=&quot;font-size: 14px;&quot;&gt;$$x_1$$&lt;/font&gt;" style="text;html=1;align=center;verticalAlign=middle;whiteSpace=wrap;rounded=0;" vertex="1" parent="u5LdR0DTFu8338qAbrxq-230">
          <mxGeometry y="50" width="20" height="20" as="geometry" />
        </mxCell>
        <mxCell id="u5LdR0DTFu8338qAbrxq-16" value="" style="endArrow=blockThin;html=1;rounded=0;exitX=1;exitY=0.5;exitDx=0;exitDy=0;entryX=0;entryY=0;entryDx=0;entryDy=0;endFill=1;" edge="1" parent="u5LdR0DTFu8338qAbrxq-230" source="u5LdR0DTFu8338qAbrxq-14" target="u5LdR0DTFu8338qAbrxq-13">
          <mxGeometry width="50" height="50" relative="1" as="geometry">
            <mxPoint x="70" y="30" as="sourcePoint" />
            <mxPoint x="120" y="-20" as="targetPoint" />
            <Array as="points">
              <mxPoint x="40" y="10" />
            </Array>
          </mxGeometry>
        </mxCell>
        <mxCell id="u5LdR0DTFu8338qAbrxq-17" value="" style="endArrow=blockThin;html=1;rounded=0;entryX=0;entryY=1;entryDx=0;entryDy=0;exitX=1;exitY=0.5;exitDx=0;exitDy=0;endFill=1;" edge="1" parent="u5LdR0DTFu8338qAbrxq-230" source="u5LdR0DTFu8338qAbrxq-15" target="u5LdR0DTFu8338qAbrxq-13">
          <mxGeometry width="50" height="50" relative="1" as="geometry">
            <mxPoint x="10" y="120" as="sourcePoint" />
            <mxPoint x="60" y="70" as="targetPoint" />
            <Array as="points">
              <mxPoint x="40" y="60" />
            </Array>
          </mxGeometry>
        </mxCell>
        <mxCell id="u5LdR0DTFu8338qAbrxq-18" value="&lt;font style=&quot;font-size: 14px;&quot;&gt;$$\geq$$&lt;/font&gt;" style="text;html=1;align=center;verticalAlign=middle;whiteSpace=wrap;rounded=0;" vertex="1" parent="u5LdR0DTFu8338qAbrxq-230">
          <mxGeometry x="47.5" y="27.5" width="15" height="15" as="geometry" />
        </mxCell>
        <mxCell id="u5LdR0DTFu8338qAbrxq-19" value="" style="group" vertex="1" connectable="0" parent="u5LdR0DTFu8338qAbrxq-230">
          <mxGeometry x="80" y="15" width="20" height="40" as="geometry" />
        </mxCell>
        <mxCell id="u5LdR0DTFu8338qAbrxq-20" value="" style="rounded=0;whiteSpace=wrap;html=1;" vertex="1" parent="u5LdR0DTFu8338qAbrxq-19">
          <mxGeometry width="20" height="40" as="geometry" />
        </mxCell>
        <mxCell id="u5LdR0DTFu8338qAbrxq-21" value="" style="triangle;whiteSpace=wrap;html=1;rotation=-90;" vertex="1" parent="u5LdR0DTFu8338qAbrxq-19">
          <mxGeometry x="5" y="30" width="10" height="10" as="geometry" />
        </mxCell>
        <mxCell id="u5LdR0DTFu8338qAbrxq-22" style="edgeStyle=orthogonalEdgeStyle;rounded=0;orthogonalLoop=1;jettySize=auto;html=1;exitX=1;exitY=0.5;exitDx=0;exitDy=0;entryX=0;entryY=0.5;entryDx=0;entryDy=0;endArrow=blockThin;endFill=1;curved=0;" edge="1" parent="u5LdR0DTFu8338qAbrxq-230" source="u5LdR0DTFu8338qAbrxq-23" target="u5LdR0DTFu8338qAbrxq-45">
          <mxGeometry relative="1" as="geometry" />
        </mxCell>
        <mxCell id="u5LdR0DTFu8338qAbrxq-23" value="" style="ellipse;whiteSpace=wrap;html=1;aspect=fixed;fillColor=#F0F0F0;" vertex="1" parent="u5LdR0DTFu8338qAbrxq-230">
          <mxGeometry x="115" y="20" width="30" height="30" as="geometry" />
        </mxCell>
        <mxCell id="u5LdR0DTFu8338qAbrxq-25" style="edgeStyle=orthogonalEdgeStyle;rounded=0;orthogonalLoop=1;jettySize=auto;html=1;exitX=1;exitY=0.25;exitDx=0;exitDy=0;entryX=0;entryY=0;entryDx=0;entryDy=0;endArrow=blockThin;endFill=1;" edge="1" parent="u5LdR0DTFu8338qAbrxq-230" source="u5LdR0DTFu8338qAbrxq-20" target="u5LdR0DTFu8338qAbrxq-23">
          <mxGeometry relative="1" as="geometry">
            <mxPoint x="110" y="25" as="targetPoint" />
          </mxGeometry>
        </mxCell>
        <mxCell id="u5LdR0DTFu8338qAbrxq-26" style="edgeStyle=orthogonalEdgeStyle;rounded=0;orthogonalLoop=1;jettySize=auto;html=1;exitX=1;exitY=1;exitDx=0;exitDy=0;entryX=0;entryY=0.75;entryDx=0;entryDy=0;endArrow=blockThin;endFill=1;" edge="1" parent="u5LdR0DTFu8338qAbrxq-230" source="u5LdR0DTFu8338qAbrxq-28" target="u5LdR0DTFu8338qAbrxq-35">
          <mxGeometry relative="1" as="geometry" />
        </mxCell>
        <mxCell id="u5LdR0DTFu8338qAbrxq-27" style="edgeStyle=orthogonalEdgeStyle;rounded=0;orthogonalLoop=1;jettySize=auto;html=1;exitX=1;exitY=0;exitDx=0;exitDy=0;entryX=0;entryY=0.25;entryDx=0;entryDy=0;endArrow=blockThin;endFill=1;" edge="1" parent="u5LdR0DTFu8338qAbrxq-230" source="u5LdR0DTFu8338qAbrxq-28" target="u5LdR0DTFu8338qAbrxq-35">
          <mxGeometry relative="1" as="geometry" />
        </mxCell>
        <mxCell id="u5LdR0DTFu8338qAbrxq-28" value="" style="ellipse;whiteSpace=wrap;html=1;aspect=fixed;fillColor=#F0F0F0;" vertex="1" parent="u5LdR0DTFu8338qAbrxq-230">
          <mxGeometry x="40" y="90" width="30" height="30" as="geometry" />
        </mxCell>
        <mxCell id="u5LdR0DTFu8338qAbrxq-29" value="&lt;font style=&quot;font-size: 14px;&quot;&gt;$$x_2$$&lt;/font&gt;" style="text;html=1;align=center;verticalAlign=middle;whiteSpace=wrap;rounded=0;" vertex="1" parent="u5LdR0DTFu8338qAbrxq-230">
          <mxGeometry y="70" width="20" height="20" as="geometry" />
        </mxCell>
        <mxCell id="u5LdR0DTFu8338qAbrxq-30" value="&lt;font style=&quot;font-size: 14px;&quot;&gt;$$x_3$$&lt;/font&gt;" style="text;html=1;align=center;verticalAlign=middle;whiteSpace=wrap;rounded=0;" vertex="1" parent="u5LdR0DTFu8338qAbrxq-230">
          <mxGeometry y="120" width="20" height="20" as="geometry" />
        </mxCell>
        <mxCell id="u5LdR0DTFu8338qAbrxq-31" value="" style="endArrow=blockThin;html=1;rounded=0;exitX=1;exitY=0.5;exitDx=0;exitDy=0;entryX=0;entryY=0;entryDx=0;entryDy=0;endFill=1;" edge="1" parent="u5LdR0DTFu8338qAbrxq-230" source="u5LdR0DTFu8338qAbrxq-29" target="u5LdR0DTFu8338qAbrxq-28">
          <mxGeometry width="50" height="50" relative="1" as="geometry">
            <mxPoint x="70" y="100" as="sourcePoint" />
            <mxPoint x="120" y="50" as="targetPoint" />
            <Array as="points">
              <mxPoint x="40" y="80" />
            </Array>
          </mxGeometry>
        </mxCell>
        <mxCell id="u5LdR0DTFu8338qAbrxq-32" value="" style="endArrow=blockThin;html=1;rounded=0;entryX=0;entryY=1;entryDx=0;entryDy=0;exitX=1;exitY=0.5;exitDx=0;exitDy=0;endFill=1;" edge="1" parent="u5LdR0DTFu8338qAbrxq-230" source="u5LdR0DTFu8338qAbrxq-30" target="u5LdR0DTFu8338qAbrxq-28">
          <mxGeometry width="50" height="50" relative="1" as="geometry">
            <mxPoint x="10" y="190" as="sourcePoint" />
            <mxPoint x="60" y="140" as="targetPoint" />
            <Array as="points">
              <mxPoint x="40" y="130" />
            </Array>
          </mxGeometry>
        </mxCell>
        <mxCell id="u5LdR0DTFu8338qAbrxq-33" value="&lt;font style=&quot;font-size: 14px;&quot;&gt;$$\geq$$&lt;/font&gt;" style="text;html=1;align=center;verticalAlign=middle;whiteSpace=wrap;rounded=0;" vertex="1" parent="u5LdR0DTFu8338qAbrxq-230">
          <mxGeometry x="47.5" y="97.5" width="15" height="15" as="geometry" />
        </mxCell>
        <mxCell id="u5LdR0DTFu8338qAbrxq-34" value="" style="group" vertex="1" connectable="0" parent="u5LdR0DTFu8338qAbrxq-230">
          <mxGeometry x="80" y="85" width="20" height="40" as="geometry" />
        </mxCell>
        <mxCell id="u5LdR0DTFu8338qAbrxq-35" value="" style="rounded=0;whiteSpace=wrap;html=1;" vertex="1" parent="u5LdR0DTFu8338qAbrxq-34">
          <mxGeometry width="20" height="40" as="geometry" />
        </mxCell>
        <mxCell id="u5LdR0DTFu8338qAbrxq-36" value="" style="triangle;whiteSpace=wrap;html=1;rotation=-90;" vertex="1" parent="u5LdR0DTFu8338qAbrxq-34">
          <mxGeometry x="5" y="30" width="10" height="10" as="geometry" />
        </mxCell>
        <mxCell id="u5LdR0DTFu8338qAbrxq-37" value="" style="endArrow=blockThin;html=1;rounded=0;entryX=0;entryY=1;entryDx=0;entryDy=0;exitX=1;exitY=0.25;exitDx=0;exitDy=0;endFill=1;" edge="1" parent="u5LdR0DTFu8338qAbrxq-230" source="u5LdR0DTFu8338qAbrxq-35" target="u5LdR0DTFu8338qAbrxq-23">
          <mxGeometry width="50" height="50" relative="1" as="geometry">
            <mxPoint x="140" y="110" as="sourcePoint" />
            <mxPoint x="190" y="60" as="targetPoint" />
            <Array as="points">
              <mxPoint x="110" y="95" />
            </Array>
          </mxGeometry>
        </mxCell>
        <mxCell id="u5LdR0DTFu8338qAbrxq-38" style="edgeStyle=orthogonalEdgeStyle;rounded=0;orthogonalLoop=1;jettySize=auto;html=1;exitX=1;exitY=0.5;exitDx=0;exitDy=0;entryX=0;entryY=0.5;entryDx=0;entryDy=0;endArrow=blockThin;endFill=1;" edge="1" parent="u5LdR0DTFu8338qAbrxq-230" source="u5LdR0DTFu8338qAbrxq-39" target="u5LdR0DTFu8338qAbrxq-47">
          <mxGeometry relative="1" as="geometry" />
        </mxCell>
        <mxCell id="u5LdR0DTFu8338qAbrxq-39" value="" style="ellipse;whiteSpace=wrap;html=1;aspect=fixed;fillColor=#F0F0F0;" vertex="1" parent="u5LdR0DTFu8338qAbrxq-230">
          <mxGeometry x="115" y="90" width="30" height="30" as="geometry" />
        </mxCell>
        <mxCell id="u5LdR0DTFu8338qAbrxq-40" value="&lt;font style=&quot;font-size: 14px;&quot;&gt;$$\geq$$&lt;/font&gt;" style="text;html=1;align=center;verticalAlign=middle;whiteSpace=wrap;rounded=0;" vertex="1" parent="u5LdR0DTFu8338qAbrxq-230">
          <mxGeometry x="122.5" y="97.5" width="15" height="15" as="geometry" />
        </mxCell>
        <mxCell id="u5LdR0DTFu8338qAbrxq-41" value="" style="endArrow=blockThin;html=1;rounded=0;exitX=1;exitY=0.75;exitDx=0;exitDy=0;entryX=0;entryY=0;entryDx=0;entryDy=0;endFill=1;" edge="1" parent="u5LdR0DTFu8338qAbrxq-230" source="u5LdR0DTFu8338qAbrxq-20" target="u5LdR0DTFu8338qAbrxq-39">
          <mxGeometry width="50" height="50" relative="1" as="geometry">
            <mxPoint x="170" y="90" as="sourcePoint" />
            <mxPoint x="220" y="40" as="targetPoint" />
            <Array as="points">
              <mxPoint x="110" y="45" />
            </Array>
          </mxGeometry>
        </mxCell>
        <mxCell id="u5LdR0DTFu8338qAbrxq-42" style="edgeStyle=orthogonalEdgeStyle;rounded=0;orthogonalLoop=1;jettySize=auto;html=1;exitX=1;exitY=0.75;exitDx=0;exitDy=0;entryX=0;entryY=1;entryDx=0;entryDy=0;endArrow=blockThin;endFill=1;" edge="1" parent="u5LdR0DTFu8338qAbrxq-230" source="u5LdR0DTFu8338qAbrxq-35" target="u5LdR0DTFu8338qAbrxq-39">
          <mxGeometry relative="1" as="geometry" />
        </mxCell>
        <mxCell id="u5LdR0DTFu8338qAbrxq-43" value="" style="ellipse;whiteSpace=wrap;html=1;aspect=fixed;fillColor=#000000;" vertex="1" parent="u5LdR0DTFu8338qAbrxq-230">
          <mxGeometry x="65" y="15" width="5" height="5" as="geometry" />
        </mxCell>
        <mxCell id="u5LdR0DTFu8338qAbrxq-44" value="" style="ellipse;whiteSpace=wrap;html=1;aspect=fixed;fillColor=#000000;" vertex="1" parent="u5LdR0DTFu8338qAbrxq-230">
          <mxGeometry x="65" y="120" width="5" height="5" as="geometry" />
        </mxCell>
        <mxCell id="u5LdR0DTFu8338qAbrxq-45" value="" style="rounded=0;whiteSpace=wrap;html=1;" vertex="1" parent="u5LdR0DTFu8338qAbrxq-230">
          <mxGeometry x="160" y="15" width="20" height="40" as="geometry" />
        </mxCell>
        <mxCell id="u5LdR0DTFu8338qAbrxq-46" value="" style="triangle;whiteSpace=wrap;html=1;rotation=-90;" vertex="1" parent="u5LdR0DTFu8338qAbrxq-230">
          <mxGeometry x="165" y="45" width="10" height="10" as="geometry" />
        </mxCell>
        <mxCell id="u5LdR0DTFu8338qAbrxq-47" value="" style="rounded=0;whiteSpace=wrap;html=1;" vertex="1" parent="u5LdR0DTFu8338qAbrxq-230">
          <mxGeometry x="160" y="85" width="20" height="40" as="geometry" />
        </mxCell>
        <mxCell id="u5LdR0DTFu8338qAbrxq-48" value="" style="triangle;whiteSpace=wrap;html=1;rotation=-90;" vertex="1" parent="u5LdR0DTFu8338qAbrxq-230">
          <mxGeometry x="165" y="115" width="10" height="10" as="geometry" />
        </mxCell>
        <mxCell id="u5LdR0DTFu8338qAbrxq-49" style="edgeStyle=orthogonalEdgeStyle;rounded=0;orthogonalLoop=1;jettySize=auto;html=1;exitX=1;exitY=1;exitDx=0;exitDy=0;entryX=0;entryY=0.75;entryDx=0;entryDy=0;endArrow=blockThin;endFill=1;" edge="1" parent="u5LdR0DTFu8338qAbrxq-230" source="u5LdR0DTFu8338qAbrxq-51" target="u5LdR0DTFu8338qAbrxq-58">
          <mxGeometry relative="1" as="geometry" />
        </mxCell>
        <mxCell id="u5LdR0DTFu8338qAbrxq-50" style="edgeStyle=orthogonalEdgeStyle;rounded=0;orthogonalLoop=1;jettySize=auto;html=1;exitX=1;exitY=0;exitDx=0;exitDy=0;entryX=0;entryY=0.25;entryDx=0;entryDy=0;endArrow=blockThin;endFill=1;" edge="1" parent="u5LdR0DTFu8338qAbrxq-230" source="u5LdR0DTFu8338qAbrxq-51" target="u5LdR0DTFu8338qAbrxq-58">
          <mxGeometry relative="1" as="geometry" />
        </mxCell>
        <mxCell id="u5LdR0DTFu8338qAbrxq-51" value="" style="ellipse;whiteSpace=wrap;html=1;aspect=fixed;fillColor=#F0F0F0;" vertex="1" parent="u5LdR0DTFu8338qAbrxq-230">
          <mxGeometry x="40" y="160" width="30" height="30" as="geometry" />
        </mxCell>
        <mxCell id="u5LdR0DTFu8338qAbrxq-52" value="&lt;font style=&quot;font-size: 14px;&quot;&gt;$$x_4$$&lt;/font&gt;" style="text;html=1;align=center;verticalAlign=middle;whiteSpace=wrap;rounded=0;" vertex="1" parent="u5LdR0DTFu8338qAbrxq-230">
          <mxGeometry y="140" width="20" height="20" as="geometry" />
        </mxCell>
        <mxCell id="u5LdR0DTFu8338qAbrxq-53" value="&lt;font style=&quot;font-size: 14px;&quot;&gt;$$x_5$$&lt;/font&gt;" style="text;html=1;align=center;verticalAlign=middle;whiteSpace=wrap;rounded=0;" vertex="1" parent="u5LdR0DTFu8338qAbrxq-230">
          <mxGeometry y="190" width="20" height="20" as="geometry" />
        </mxCell>
        <mxCell id="u5LdR0DTFu8338qAbrxq-54" value="" style="endArrow=blockThin;html=1;rounded=0;exitX=1;exitY=0.5;exitDx=0;exitDy=0;entryX=0;entryY=0;entryDx=0;entryDy=0;endFill=1;" edge="1" parent="u5LdR0DTFu8338qAbrxq-230" source="u5LdR0DTFu8338qAbrxq-52" target="u5LdR0DTFu8338qAbrxq-51">
          <mxGeometry width="50" height="50" relative="1" as="geometry">
            <mxPoint x="70" y="170" as="sourcePoint" />
            <mxPoint x="120" y="120" as="targetPoint" />
            <Array as="points">
              <mxPoint x="40" y="150" />
            </Array>
          </mxGeometry>
        </mxCell>
        <mxCell id="u5LdR0DTFu8338qAbrxq-55" value="" style="endArrow=blockThin;html=1;rounded=0;entryX=0;entryY=1;entryDx=0;entryDy=0;exitX=1;exitY=0.5;exitDx=0;exitDy=0;endFill=1;" edge="1" parent="u5LdR0DTFu8338qAbrxq-230" source="u5LdR0DTFu8338qAbrxq-53" target="u5LdR0DTFu8338qAbrxq-51">
          <mxGeometry width="50" height="50" relative="1" as="geometry">
            <mxPoint x="10" y="260" as="sourcePoint" />
            <mxPoint x="60" y="210" as="targetPoint" />
            <Array as="points">
              <mxPoint x="40" y="200" />
            </Array>
          </mxGeometry>
        </mxCell>
        <mxCell id="u5LdR0DTFu8338qAbrxq-56" value="&lt;font style=&quot;font-size: 14px;&quot;&gt;$$\geq$$&lt;/font&gt;" style="text;html=1;align=center;verticalAlign=middle;whiteSpace=wrap;rounded=0;" vertex="1" parent="u5LdR0DTFu8338qAbrxq-230">
          <mxGeometry x="47.5" y="167.5" width="15" height="15" as="geometry" />
        </mxCell>
        <mxCell id="u5LdR0DTFu8338qAbrxq-57" value="" style="group" vertex="1" connectable="0" parent="u5LdR0DTFu8338qAbrxq-230">
          <mxGeometry x="80" y="155" width="20" height="40" as="geometry" />
        </mxCell>
        <mxCell id="u5LdR0DTFu8338qAbrxq-58" value="" style="rounded=0;whiteSpace=wrap;html=1;" vertex="1" parent="u5LdR0DTFu8338qAbrxq-57">
          <mxGeometry width="20" height="40" as="geometry" />
        </mxCell>
        <mxCell id="u5LdR0DTFu8338qAbrxq-59" value="" style="triangle;whiteSpace=wrap;html=1;rotation=-90;" vertex="1" parent="u5LdR0DTFu8338qAbrxq-57">
          <mxGeometry x="5" y="30" width="10" height="10" as="geometry" />
        </mxCell>
        <mxCell id="u5LdR0DTFu8338qAbrxq-60" style="edgeStyle=orthogonalEdgeStyle;rounded=0;orthogonalLoop=1;jettySize=auto;html=1;exitX=1;exitY=0.5;exitDx=0;exitDy=0;entryX=0;entryY=0.5;entryDx=0;entryDy=0;endArrow=blockThin;endFill=1;curved=0;" edge="1" parent="u5LdR0DTFu8338qAbrxq-230" source="u5LdR0DTFu8338qAbrxq-61" target="u5LdR0DTFu8338qAbrxq-83">
          <mxGeometry relative="1" as="geometry" />
        </mxCell>
        <mxCell id="u5LdR0DTFu8338qAbrxq-61" value="" style="ellipse;whiteSpace=wrap;html=1;aspect=fixed;fillColor=#F0F0F0;" vertex="1" parent="u5LdR0DTFu8338qAbrxq-230">
          <mxGeometry x="115" y="160" width="30" height="30" as="geometry" />
        </mxCell>
        <mxCell id="u5LdR0DTFu8338qAbrxq-62" value="&lt;font style=&quot;font-size: 14px;&quot;&gt;$$\geq$$&lt;/font&gt;" style="text;html=1;align=center;verticalAlign=middle;whiteSpace=wrap;rounded=0;" vertex="1" parent="u5LdR0DTFu8338qAbrxq-230">
          <mxGeometry x="122.5" y="167.5" width="15" height="15" as="geometry" />
        </mxCell>
        <mxCell id="u5LdR0DTFu8338qAbrxq-63" style="edgeStyle=orthogonalEdgeStyle;rounded=0;orthogonalLoop=1;jettySize=auto;html=1;exitX=1;exitY=0.25;exitDx=0;exitDy=0;entryX=0;entryY=0;entryDx=0;entryDy=0;endArrow=blockThin;endFill=1;" edge="1" parent="u5LdR0DTFu8338qAbrxq-230" source="u5LdR0DTFu8338qAbrxq-58" target="u5LdR0DTFu8338qAbrxq-61">
          <mxGeometry relative="1" as="geometry">
            <mxPoint x="110" y="165" as="targetPoint" />
          </mxGeometry>
        </mxCell>
        <mxCell id="u5LdR0DTFu8338qAbrxq-64" style="edgeStyle=orthogonalEdgeStyle;rounded=0;orthogonalLoop=1;jettySize=auto;html=1;exitX=1;exitY=1;exitDx=0;exitDy=0;entryX=0;entryY=0.75;entryDx=0;entryDy=0;endArrow=blockThin;endFill=1;" edge="1" parent="u5LdR0DTFu8338qAbrxq-230" source="u5LdR0DTFu8338qAbrxq-66" target="u5LdR0DTFu8338qAbrxq-73">
          <mxGeometry relative="1" as="geometry" />
        </mxCell>
        <mxCell id="u5LdR0DTFu8338qAbrxq-65" style="edgeStyle=orthogonalEdgeStyle;rounded=0;orthogonalLoop=1;jettySize=auto;html=1;exitX=1;exitY=0;exitDx=0;exitDy=0;entryX=0;entryY=0.25;entryDx=0;entryDy=0;endArrow=blockThin;endFill=1;" edge="1" parent="u5LdR0DTFu8338qAbrxq-230" source="u5LdR0DTFu8338qAbrxq-66" target="u5LdR0DTFu8338qAbrxq-73">
          <mxGeometry relative="1" as="geometry" />
        </mxCell>
        <mxCell id="u5LdR0DTFu8338qAbrxq-66" value="" style="ellipse;whiteSpace=wrap;html=1;aspect=fixed;fillColor=#F0F0F0;" vertex="1" parent="u5LdR0DTFu8338qAbrxq-230">
          <mxGeometry x="40" y="230" width="30" height="30" as="geometry" />
        </mxCell>
        <mxCell id="u5LdR0DTFu8338qAbrxq-67" value="&lt;font style=&quot;font-size: 14px;&quot;&gt;$$x_6$$&lt;/font&gt;" style="text;html=1;align=center;verticalAlign=middle;whiteSpace=wrap;rounded=0;" vertex="1" parent="u5LdR0DTFu8338qAbrxq-230">
          <mxGeometry y="210" width="20" height="20" as="geometry" />
        </mxCell>
        <mxCell id="u5LdR0DTFu8338qAbrxq-68" value="&lt;font style=&quot;font-size: 14px;&quot;&gt;$$x_7$$&lt;/font&gt;" style="text;html=1;align=center;verticalAlign=middle;whiteSpace=wrap;rounded=0;" vertex="1" parent="u5LdR0DTFu8338qAbrxq-230">
          <mxGeometry y="260" width="20" height="20" as="geometry" />
        </mxCell>
        <mxCell id="u5LdR0DTFu8338qAbrxq-69" value="" style="endArrow=blockThin;html=1;rounded=0;exitX=1;exitY=0.5;exitDx=0;exitDy=0;entryX=0;entryY=0;entryDx=0;entryDy=0;endFill=1;" edge="1" parent="u5LdR0DTFu8338qAbrxq-230" source="u5LdR0DTFu8338qAbrxq-67" target="u5LdR0DTFu8338qAbrxq-66">
          <mxGeometry width="50" height="50" relative="1" as="geometry">
            <mxPoint x="70" y="240" as="sourcePoint" />
            <mxPoint x="120" y="190" as="targetPoint" />
            <Array as="points">
              <mxPoint x="40" y="220" />
            </Array>
          </mxGeometry>
        </mxCell>
        <mxCell id="u5LdR0DTFu8338qAbrxq-70" value="" style="endArrow=blockThin;html=1;rounded=0;entryX=0;entryY=1;entryDx=0;entryDy=0;exitX=1;exitY=0.5;exitDx=0;exitDy=0;endFill=1;" edge="1" parent="u5LdR0DTFu8338qAbrxq-230" source="u5LdR0DTFu8338qAbrxq-68" target="u5LdR0DTFu8338qAbrxq-66">
          <mxGeometry width="50" height="50" relative="1" as="geometry">
            <mxPoint x="10" y="330" as="sourcePoint" />
            <mxPoint x="60" y="280" as="targetPoint" />
            <Array as="points">
              <mxPoint x="40" y="270" />
            </Array>
          </mxGeometry>
        </mxCell>
        <mxCell id="u5LdR0DTFu8338qAbrxq-71" value="&lt;font style=&quot;font-size: 14px;&quot;&gt;$$\geq$$&lt;/font&gt;" style="text;html=1;align=center;verticalAlign=middle;whiteSpace=wrap;rounded=0;" vertex="1" parent="u5LdR0DTFu8338qAbrxq-230">
          <mxGeometry x="47.5" y="237.5" width="15" height="15" as="geometry" />
        </mxCell>
        <mxCell id="u5LdR0DTFu8338qAbrxq-72" value="" style="group" vertex="1" connectable="0" parent="u5LdR0DTFu8338qAbrxq-230">
          <mxGeometry x="80" y="225" width="20" height="40" as="geometry" />
        </mxCell>
        <mxCell id="u5LdR0DTFu8338qAbrxq-73" value="" style="rounded=0;whiteSpace=wrap;html=1;" vertex="1" parent="u5LdR0DTFu8338qAbrxq-72">
          <mxGeometry width="20" height="40" as="geometry" />
        </mxCell>
        <mxCell id="u5LdR0DTFu8338qAbrxq-74" value="" style="triangle;whiteSpace=wrap;html=1;rotation=-90;" vertex="1" parent="u5LdR0DTFu8338qAbrxq-72">
          <mxGeometry x="5" y="30" width="10" height="10" as="geometry" />
        </mxCell>
        <mxCell id="u5LdR0DTFu8338qAbrxq-75" value="" style="endArrow=blockThin;html=1;rounded=0;entryX=0;entryY=1;entryDx=0;entryDy=0;exitX=1;exitY=0.25;exitDx=0;exitDy=0;endFill=1;" edge="1" parent="u5LdR0DTFu8338qAbrxq-230" source="u5LdR0DTFu8338qAbrxq-73" target="u5LdR0DTFu8338qAbrxq-61">
          <mxGeometry width="50" height="50" relative="1" as="geometry">
            <mxPoint x="140" y="250" as="sourcePoint" />
            <mxPoint x="190" y="200" as="targetPoint" />
            <Array as="points">
              <mxPoint x="110" y="235" />
            </Array>
          </mxGeometry>
        </mxCell>
        <mxCell id="u5LdR0DTFu8338qAbrxq-76" style="edgeStyle=orthogonalEdgeStyle;rounded=0;orthogonalLoop=1;jettySize=auto;html=1;exitX=1;exitY=0.5;exitDx=0;exitDy=0;entryX=0;entryY=0.5;entryDx=0;entryDy=0;endArrow=blockThin;endFill=1;" edge="1" parent="u5LdR0DTFu8338qAbrxq-230" source="u5LdR0DTFu8338qAbrxq-77" target="u5LdR0DTFu8338qAbrxq-85">
          <mxGeometry relative="1" as="geometry" />
        </mxCell>
        <mxCell id="u5LdR0DTFu8338qAbrxq-77" value="" style="ellipse;whiteSpace=wrap;html=1;aspect=fixed;fillColor=#F0F0F0;" vertex="1" parent="u5LdR0DTFu8338qAbrxq-230">
          <mxGeometry x="115" y="230" width="30" height="30" as="geometry" />
        </mxCell>
        <mxCell id="u5LdR0DTFu8338qAbrxq-78" value="&lt;font style=&quot;font-size: 14px;&quot;&gt;$$\geq$$&lt;/font&gt;" style="text;html=1;align=center;verticalAlign=middle;whiteSpace=wrap;rounded=0;" vertex="1" parent="u5LdR0DTFu8338qAbrxq-230">
          <mxGeometry x="122.5" y="237.5" width="15" height="15" as="geometry" />
        </mxCell>
        <mxCell id="u5LdR0DTFu8338qAbrxq-79" value="" style="endArrow=blockThin;html=1;rounded=0;exitX=1;exitY=0.75;exitDx=0;exitDy=0;entryX=0;entryY=0;entryDx=0;entryDy=0;endFill=1;" edge="1" parent="u5LdR0DTFu8338qAbrxq-230" source="u5LdR0DTFu8338qAbrxq-58" target="u5LdR0DTFu8338qAbrxq-77">
          <mxGeometry width="50" height="50" relative="1" as="geometry">
            <mxPoint x="170" y="230" as="sourcePoint" />
            <mxPoint x="220" y="180" as="targetPoint" />
            <Array as="points">
              <mxPoint x="110" y="185" />
            </Array>
          </mxGeometry>
        </mxCell>
        <mxCell id="u5LdR0DTFu8338qAbrxq-80" style="edgeStyle=orthogonalEdgeStyle;rounded=0;orthogonalLoop=1;jettySize=auto;html=1;exitX=1;exitY=0.75;exitDx=0;exitDy=0;entryX=0;entryY=1;entryDx=0;entryDy=0;endArrow=blockThin;endFill=1;" edge="1" parent="u5LdR0DTFu8338qAbrxq-230" source="u5LdR0DTFu8338qAbrxq-73" target="u5LdR0DTFu8338qAbrxq-77">
          <mxGeometry relative="1" as="geometry" />
        </mxCell>
        <mxCell id="u5LdR0DTFu8338qAbrxq-81" value="" style="ellipse;whiteSpace=wrap;html=1;aspect=fixed;fillColor=#000000;" vertex="1" parent="u5LdR0DTFu8338qAbrxq-230">
          <mxGeometry x="65" y="155" width="5" height="5" as="geometry" />
        </mxCell>
        <mxCell id="u5LdR0DTFu8338qAbrxq-82" value="" style="ellipse;whiteSpace=wrap;html=1;aspect=fixed;fillColor=#000000;" vertex="1" parent="u5LdR0DTFu8338qAbrxq-230">
          <mxGeometry x="65" y="260" width="5" height="5" as="geometry" />
        </mxCell>
        <mxCell id="u5LdR0DTFu8338qAbrxq-83" value="" style="rounded=0;whiteSpace=wrap;html=1;" vertex="1" parent="u5LdR0DTFu8338qAbrxq-230">
          <mxGeometry x="160" y="155" width="20" height="40" as="geometry" />
        </mxCell>
        <mxCell id="u5LdR0DTFu8338qAbrxq-84" value="" style="triangle;whiteSpace=wrap;html=1;rotation=-90;" vertex="1" parent="u5LdR0DTFu8338qAbrxq-230">
          <mxGeometry x="165" y="185" width="10" height="10" as="geometry" />
        </mxCell>
        <mxCell id="u5LdR0DTFu8338qAbrxq-85" value="" style="rounded=0;whiteSpace=wrap;html=1;" vertex="1" parent="u5LdR0DTFu8338qAbrxq-230">
          <mxGeometry x="160" y="225" width="20" height="40" as="geometry" />
        </mxCell>
        <mxCell id="u5LdR0DTFu8338qAbrxq-86" value="" style="triangle;whiteSpace=wrap;html=1;rotation=-90;" vertex="1" parent="u5LdR0DTFu8338qAbrxq-230">
          <mxGeometry x="165" y="255" width="10" height="10" as="geometry" />
        </mxCell>
        <mxCell id="u5LdR0DTFu8338qAbrxq-87" style="edgeStyle=orthogonalEdgeStyle;rounded=0;orthogonalLoop=1;jettySize=auto;html=1;exitX=1;exitY=0;exitDx=0;exitDy=0;entryX=0;entryY=0.25;entryDx=0;entryDy=0;endArrow=blockThin;endFill=1;" edge="1" parent="u5LdR0DTFu8338qAbrxq-230" source="u5LdR0DTFu8338qAbrxq-89" target="u5LdR0DTFu8338qAbrxq-100">
          <mxGeometry relative="1" as="geometry" />
        </mxCell>
        <mxCell id="u5LdR0DTFu8338qAbrxq-88" style="edgeStyle=orthogonalEdgeStyle;rounded=0;orthogonalLoop=1;jettySize=auto;html=1;exitX=1;exitY=1;exitDx=0;exitDy=0;entryX=0;entryY=0.75;entryDx=0;entryDy=0;endArrow=blockThin;endFill=1;" edge="1" parent="u5LdR0DTFu8338qAbrxq-230" source="u5LdR0DTFu8338qAbrxq-89" target="u5LdR0DTFu8338qAbrxq-100">
          <mxGeometry relative="1" as="geometry" />
        </mxCell>
        <mxCell id="u5LdR0DTFu8338qAbrxq-89" value="" style="ellipse;whiteSpace=wrap;html=1;aspect=fixed;fillColor=#F0F0F0;" vertex="1" parent="u5LdR0DTFu8338qAbrxq-230">
          <mxGeometry x="195" y="55" width="30" height="30" as="geometry" />
        </mxCell>
        <mxCell id="u5LdR0DTFu8338qAbrxq-90" value="&lt;font style=&quot;font-size: 14px;&quot;&gt;$$\geq$$&lt;/font&gt;" style="text;html=1;align=center;verticalAlign=middle;whiteSpace=wrap;rounded=0;" vertex="1" parent="u5LdR0DTFu8338qAbrxq-230">
          <mxGeometry x="202.5" y="62.5" width="15" height="15" as="geometry" />
        </mxCell>
        <mxCell id="u5LdR0DTFu8338qAbrxq-91" style="edgeStyle=orthogonalEdgeStyle;rounded=0;orthogonalLoop=1;jettySize=auto;html=1;exitX=1;exitY=0;exitDx=0;exitDy=0;entryX=0;entryY=0.25;entryDx=0;entryDy=0;endArrow=blockThin;endFill=1;" edge="1" parent="u5LdR0DTFu8338qAbrxq-230" source="u5LdR0DTFu8338qAbrxq-93" target="u5LdR0DTFu8338qAbrxq-103">
          <mxGeometry relative="1" as="geometry" />
        </mxCell>
        <mxCell id="u5LdR0DTFu8338qAbrxq-92" style="edgeStyle=orthogonalEdgeStyle;rounded=0;orthogonalLoop=1;jettySize=auto;html=1;exitX=1;exitY=1;exitDx=0;exitDy=0;entryX=0;entryY=0.75;entryDx=0;entryDy=0;endArrow=blockThin;endFill=1;" edge="1" parent="u5LdR0DTFu8338qAbrxq-230" source="u5LdR0DTFu8338qAbrxq-93" target="u5LdR0DTFu8338qAbrxq-103">
          <mxGeometry relative="1" as="geometry" />
        </mxCell>
        <mxCell id="u5LdR0DTFu8338qAbrxq-93" value="" style="ellipse;whiteSpace=wrap;html=1;aspect=fixed;fillColor=#F0F0F0;" vertex="1" parent="u5LdR0DTFu8338qAbrxq-230">
          <mxGeometry x="195" y="195" width="30" height="30" as="geometry" />
        </mxCell>
        <mxCell id="u5LdR0DTFu8338qAbrxq-94" value="&lt;font style=&quot;font-size: 14px;&quot;&gt;$$\geq$$&lt;/font&gt;" style="text;html=1;align=center;verticalAlign=middle;whiteSpace=wrap;rounded=0;" vertex="1" parent="u5LdR0DTFu8338qAbrxq-230">
          <mxGeometry x="202.5" y="202.5" width="15" height="15" as="geometry" />
        </mxCell>
        <mxCell id="u5LdR0DTFu8338qAbrxq-95" value="" style="endArrow=blockThin;html=1;rounded=0;exitX=1;exitY=0.5;exitDx=0;exitDy=0;entryX=0;entryY=0;entryDx=0;entryDy=0;endFill=1;" edge="1" parent="u5LdR0DTFu8338qAbrxq-230" source="u5LdR0DTFu8338qAbrxq-45" target="u5LdR0DTFu8338qAbrxq-89">
          <mxGeometry width="50" height="50" relative="1" as="geometry">
            <mxPoint x="200" y="70" as="sourcePoint" />
            <mxPoint x="250" y="20" as="targetPoint" />
            <Array as="points">
              <mxPoint x="190" y="35" />
            </Array>
          </mxGeometry>
        </mxCell>
        <mxCell id="u5LdR0DTFu8338qAbrxq-96" value="" style="endArrow=blockThin;html=1;rounded=0;exitX=1;exitY=0.5;exitDx=0;exitDy=0;entryX=0;entryY=1;entryDx=0;entryDy=0;endFill=1;" edge="1" parent="u5LdR0DTFu8338qAbrxq-230" source="u5LdR0DTFu8338qAbrxq-47" target="u5LdR0DTFu8338qAbrxq-89">
          <mxGeometry width="50" height="50" relative="1" as="geometry">
            <mxPoint x="230" y="150" as="sourcePoint" />
            <mxPoint x="280" y="100" as="targetPoint" />
            <Array as="points">
              <mxPoint x="190" y="105" />
            </Array>
          </mxGeometry>
        </mxCell>
        <mxCell id="u5LdR0DTFu8338qAbrxq-97" value="" style="endArrow=blockThin;html=1;rounded=0;exitX=1;exitY=0.5;exitDx=0;exitDy=0;entryX=0;entryY=0;entryDx=0;entryDy=0;endFill=1;" edge="1" parent="u5LdR0DTFu8338qAbrxq-230" source="u5LdR0DTFu8338qAbrxq-83" target="u5LdR0DTFu8338qAbrxq-93">
          <mxGeometry width="50" height="50" relative="1" as="geometry">
            <mxPoint x="260" y="210" as="sourcePoint" />
            <mxPoint x="310" y="160" as="targetPoint" />
            <Array as="points">
              <mxPoint x="190" y="175" />
            </Array>
          </mxGeometry>
        </mxCell>
        <mxCell id="u5LdR0DTFu8338qAbrxq-98" value="" style="endArrow=blockThin;html=1;rounded=0;exitX=1;exitY=0.5;exitDx=0;exitDy=0;entryX=0;entryY=1;entryDx=0;entryDy=0;endFill=1;" edge="1" parent="u5LdR0DTFu8338qAbrxq-230" source="u5LdR0DTFu8338qAbrxq-85" target="u5LdR0DTFu8338qAbrxq-93">
          <mxGeometry width="50" height="50" relative="1" as="geometry">
            <mxPoint x="230" y="290" as="sourcePoint" />
            <mxPoint x="280" y="240" as="targetPoint" />
            <Array as="points">
              <mxPoint x="190" y="245" />
            </Array>
          </mxGeometry>
        </mxCell>
        <mxCell id="u5LdR0DTFu8338qAbrxq-99" style="edgeStyle=orthogonalEdgeStyle;rounded=0;orthogonalLoop=1;jettySize=auto;html=1;exitX=1;exitY=0.25;exitDx=0;exitDy=0;entryX=0;entryY=0;entryDx=0;entryDy=0;endArrow=blockThin;endFill=1;" edge="1" parent="u5LdR0DTFu8338qAbrxq-230" source="u5LdR0DTFu8338qAbrxq-100" target="u5LdR0DTFu8338qAbrxq-108">
          <mxGeometry relative="1" as="geometry" />
        </mxCell>
        <mxCell id="u5LdR0DTFu8338qAbrxq-100" value="" style="rounded=0;whiteSpace=wrap;html=1;" vertex="1" parent="u5LdR0DTFu8338qAbrxq-230">
          <mxGeometry x="240" y="50" width="20" height="40" as="geometry" />
        </mxCell>
        <mxCell id="u5LdR0DTFu8338qAbrxq-101" value="" style="triangle;whiteSpace=wrap;html=1;rotation=-90;" vertex="1" parent="u5LdR0DTFu8338qAbrxq-230">
          <mxGeometry x="245" y="80" width="10" height="10" as="geometry" />
        </mxCell>
        <mxCell id="u5LdR0DTFu8338qAbrxq-102" style="edgeStyle=orthogonalEdgeStyle;rounded=0;orthogonalLoop=1;jettySize=auto;html=1;exitX=1;exitY=0.75;exitDx=0;exitDy=0;entryX=0;entryY=1;entryDx=0;entryDy=0;endArrow=blockThin;endFill=1;" edge="1" parent="u5LdR0DTFu8338qAbrxq-230" source="u5LdR0DTFu8338qAbrxq-103" target="u5LdR0DTFu8338qAbrxq-112">
          <mxGeometry relative="1" as="geometry" />
        </mxCell>
        <mxCell id="u5LdR0DTFu8338qAbrxq-103" value="" style="rounded=0;whiteSpace=wrap;html=1;" vertex="1" parent="u5LdR0DTFu8338qAbrxq-230">
          <mxGeometry x="240" y="190" width="20" height="40" as="geometry" />
        </mxCell>
        <mxCell id="u5LdR0DTFu8338qAbrxq-104" value="" style="triangle;whiteSpace=wrap;html=1;rotation=-90;" vertex="1" parent="u5LdR0DTFu8338qAbrxq-230">
          <mxGeometry x="245" y="220" width="10" height="10" as="geometry" />
        </mxCell>
        <mxCell id="u5LdR0DTFu8338qAbrxq-105" value="" style="ellipse;whiteSpace=wrap;html=1;aspect=fixed;fillColor=#000000;" vertex="1" parent="u5LdR0DTFu8338qAbrxq-230">
          <mxGeometry x="220" y="50" width="5" height="5" as="geometry" />
        </mxCell>
        <mxCell id="u5LdR0DTFu8338qAbrxq-106" value="" style="ellipse;whiteSpace=wrap;html=1;aspect=fixed;fillColor=#000000;" vertex="1" parent="u5LdR0DTFu8338qAbrxq-230">
          <mxGeometry x="220" y="225" width="5" height="5" as="geometry" />
        </mxCell>
        <mxCell id="u5LdR0DTFu8338qAbrxq-107" style="edgeStyle=orthogonalEdgeStyle;rounded=0;orthogonalLoop=1;jettySize=auto;html=1;exitX=1;exitY=0.5;exitDx=0;exitDy=0;entryX=0;entryY=0.5;entryDx=0;entryDy=0;endArrow=blockThin;endFill=1;" edge="1" parent="u5LdR0DTFu8338qAbrxq-230" source="u5LdR0DTFu8338qAbrxq-108" target="u5LdR0DTFu8338qAbrxq-115">
          <mxGeometry relative="1" as="geometry" />
        </mxCell>
        <mxCell id="u5LdR0DTFu8338qAbrxq-108" value="" style="ellipse;whiteSpace=wrap;html=1;aspect=fixed;fillColor=#F0F0F0;" vertex="1" parent="u5LdR0DTFu8338qAbrxq-230">
          <mxGeometry x="277" y="55" width="30" height="30" as="geometry" />
        </mxCell>
        <mxCell id="u5LdR0DTFu8338qAbrxq-109" value="&lt;font style=&quot;font-size: 14px;&quot;&gt;$$\geq$$&lt;/font&gt;" style="text;html=1;align=center;verticalAlign=middle;whiteSpace=wrap;rounded=0;" vertex="1" parent="u5LdR0DTFu8338qAbrxq-230">
          <mxGeometry x="284.5" y="62.5" width="15" height="15" as="geometry" />
        </mxCell>
        <mxCell id="u5LdR0DTFu8338qAbrxq-110" value="" style="endArrow=blockThin;html=1;rounded=0;exitX=1;exitY=0.25;exitDx=0;exitDy=0;entryX=0;entryY=1;entryDx=0;entryDy=0;endFill=1;" edge="1" parent="u5LdR0DTFu8338qAbrxq-230" source="u5LdR0DTFu8338qAbrxq-103" target="u5LdR0DTFu8338qAbrxq-108">
          <mxGeometry width="50" height="50" relative="1" as="geometry">
            <mxPoint x="290" y="200" as="sourcePoint" />
            <mxPoint x="340" y="150" as="targetPoint" />
            <Array as="points">
              <mxPoint x="270" y="200" />
            </Array>
          </mxGeometry>
        </mxCell>
        <mxCell id="u5LdR0DTFu8338qAbrxq-111" style="edgeStyle=orthogonalEdgeStyle;rounded=0;orthogonalLoop=1;jettySize=auto;html=1;exitX=1;exitY=0.5;exitDx=0;exitDy=0;entryX=0;entryY=0.5;entryDx=0;entryDy=0;endArrow=blockThin;endFill=1;" edge="1" parent="u5LdR0DTFu8338qAbrxq-230" source="u5LdR0DTFu8338qAbrxq-112" target="u5LdR0DTFu8338qAbrxq-117">
          <mxGeometry relative="1" as="geometry" />
        </mxCell>
        <mxCell id="u5LdR0DTFu8338qAbrxq-112" value="" style="ellipse;whiteSpace=wrap;html=1;aspect=fixed;fillColor=#F0F0F0;" vertex="1" parent="u5LdR0DTFu8338qAbrxq-230">
          <mxGeometry x="277" y="195" width="30" height="30" as="geometry" />
        </mxCell>
        <mxCell id="u5LdR0DTFu8338qAbrxq-113" value="&lt;font style=&quot;font-size: 14px;&quot;&gt;$$\geq$$&lt;/font&gt;" style="text;html=1;align=center;verticalAlign=middle;whiteSpace=wrap;rounded=0;" vertex="1" parent="u5LdR0DTFu8338qAbrxq-230">
          <mxGeometry x="284.5" y="202.5" width="15" height="15" as="geometry" />
        </mxCell>
        <mxCell id="u5LdR0DTFu8338qAbrxq-114" value="" style="endArrow=blockThin;html=1;rounded=0;exitX=1;exitY=0.75;exitDx=0;exitDy=0;entryX=0;entryY=0;entryDx=0;entryDy=0;endFill=1;" edge="1" parent="u5LdR0DTFu8338qAbrxq-230" source="u5LdR0DTFu8338qAbrxq-100" target="u5LdR0DTFu8338qAbrxq-112">
          <mxGeometry width="50" height="50" relative="1" as="geometry">
            <mxPoint x="320" y="150" as="sourcePoint" />
            <mxPoint x="370" y="100" as="targetPoint" />
            <Array as="points">
              <mxPoint x="270" y="80" />
            </Array>
          </mxGeometry>
        </mxCell>
        <mxCell id="u5LdR0DTFu8338qAbrxq-115" value="" style="rounded=0;whiteSpace=wrap;html=1;" vertex="1" parent="u5LdR0DTFu8338qAbrxq-230">
          <mxGeometry x="320" y="50" width="20" height="40" as="geometry" />
        </mxCell>
        <mxCell id="u5LdR0DTFu8338qAbrxq-116" value="" style="triangle;whiteSpace=wrap;html=1;rotation=-90;" vertex="1" parent="u5LdR0DTFu8338qAbrxq-230">
          <mxGeometry x="325" y="80" width="10" height="10" as="geometry" />
        </mxCell>
        <mxCell id="u5LdR0DTFu8338qAbrxq-117" value="" style="rounded=0;whiteSpace=wrap;html=1;" vertex="1" parent="u5LdR0DTFu8338qAbrxq-230">
          <mxGeometry x="320" y="190" width="20" height="40" as="geometry" />
        </mxCell>
        <mxCell id="u5LdR0DTFu8338qAbrxq-118" value="" style="triangle;whiteSpace=wrap;html=1;rotation=-90;" vertex="1" parent="u5LdR0DTFu8338qAbrxq-230">
          <mxGeometry x="325" y="220" width="10" height="10" as="geometry" />
        </mxCell>
        <mxCell id="u5LdR0DTFu8338qAbrxq-119" value="&lt;font style=&quot;font-size: 14px;&quot;&gt;$$x_8$$&lt;/font&gt;" style="text;html=1;align=center;verticalAlign=middle;whiteSpace=wrap;rounded=0;" vertex="1" parent="u5LdR0DTFu8338qAbrxq-230">
          <mxGeometry y="280" width="20" height="20" as="geometry" />
        </mxCell>
        <mxCell id="u5LdR0DTFu8338qAbrxq-120" value="&lt;font style=&quot;font-size: 14px;&quot;&gt;$$x_9$$&lt;/font&gt;" style="text;html=1;align=center;verticalAlign=middle;whiteSpace=wrap;rounded=0;" vertex="1" parent="u5LdR0DTFu8338qAbrxq-230">
          <mxGeometry y="330" width="20" height="20" as="geometry" />
        </mxCell>
        <mxCell id="u5LdR0DTFu8338qAbrxq-121" value="" style="endArrow=blockThin;html=1;rounded=0;exitX=1;exitY=0.5;exitDx=0;exitDy=0;entryX=0;entryY=0.25;entryDx=0;entryDy=0;endFill=1;" edge="1" parent="u5LdR0DTFu8338qAbrxq-230" source="u5LdR0DTFu8338qAbrxq-119" target="u5LdR0DTFu8338qAbrxq-124">
          <mxGeometry width="50" height="50" relative="1" as="geometry">
            <mxPoint x="70" y="310" as="sourcePoint" />
            <mxPoint x="44.393398282201815" y="304.39339828220204" as="targetPoint" />
            <Array as="points">
              <mxPoint x="40" y="290" />
            </Array>
          </mxGeometry>
        </mxCell>
        <mxCell id="u5LdR0DTFu8338qAbrxq-122" value="" style="endArrow=blockThin;html=1;rounded=0;entryX=0;entryY=0.75;entryDx=0;entryDy=0;exitX=1;exitY=0.5;exitDx=0;exitDy=0;endFill=1;" edge="1" parent="u5LdR0DTFu8338qAbrxq-230" source="u5LdR0DTFu8338qAbrxq-120" target="u5LdR0DTFu8338qAbrxq-124">
          <mxGeometry width="50" height="50" relative="1" as="geometry">
            <mxPoint x="10" y="400" as="sourcePoint" />
            <mxPoint x="44.393398282201815" y="325.60660171779796" as="targetPoint" />
            <Array as="points">
              <mxPoint x="40" y="340" />
            </Array>
          </mxGeometry>
        </mxCell>
        <mxCell id="u5LdR0DTFu8338qAbrxq-123" value="" style="group" vertex="1" connectable="0" parent="u5LdR0DTFu8338qAbrxq-230">
          <mxGeometry x="80" y="295" width="20" height="40" as="geometry" />
        </mxCell>
        <mxCell id="u5LdR0DTFu8338qAbrxq-124" value="" style="rounded=0;whiteSpace=wrap;html=1;" vertex="1" parent="u5LdR0DTFu8338qAbrxq-123">
          <mxGeometry width="20" height="40" as="geometry" />
        </mxCell>
        <mxCell id="u5LdR0DTFu8338qAbrxq-125" value="" style="triangle;whiteSpace=wrap;html=1;rotation=-90;" vertex="1" parent="u5LdR0DTFu8338qAbrxq-123">
          <mxGeometry x="5" y="30" width="10" height="10" as="geometry" />
        </mxCell>
        <mxCell id="u5LdR0DTFu8338qAbrxq-126" style="edgeStyle=orthogonalEdgeStyle;rounded=0;orthogonalLoop=1;jettySize=auto;html=1;exitX=1;exitY=0.25;exitDx=0;exitDy=0;entryX=0;entryY=0.25;entryDx=0;entryDy=0;endArrow=blockThin;endFill=1;" edge="1" parent="u5LdR0DTFu8338qAbrxq-230" source="u5LdR0DTFu8338qAbrxq-128" target="u5LdR0DTFu8338qAbrxq-134">
          <mxGeometry relative="1" as="geometry" />
        </mxCell>
        <mxCell id="u5LdR0DTFu8338qAbrxq-127" style="edgeStyle=orthogonalEdgeStyle;rounded=0;orthogonalLoop=1;jettySize=auto;html=1;exitX=1;exitY=0.75;exitDx=0;exitDy=0;entryX=0;entryY=0.75;entryDx=0;entryDy=0;endArrow=blockThin;endFill=1;" edge="1" parent="u5LdR0DTFu8338qAbrxq-230" source="u5LdR0DTFu8338qAbrxq-128" target="u5LdR0DTFu8338qAbrxq-134">
          <mxGeometry relative="1" as="geometry" />
        </mxCell>
        <mxCell id="u5LdR0DTFu8338qAbrxq-128" value="" style="rounded=0;whiteSpace=wrap;html=1;" vertex="1" parent="u5LdR0DTFu8338qAbrxq-230">
          <mxGeometry x="160" y="295" width="20" height="40" as="geometry" />
        </mxCell>
        <mxCell id="u5LdR0DTFu8338qAbrxq-129" value="" style="triangle;whiteSpace=wrap;html=1;rotation=-90;" vertex="1" parent="u5LdR0DTFu8338qAbrxq-230">
          <mxGeometry x="165" y="325" width="10" height="10" as="geometry" />
        </mxCell>
        <mxCell id="u5LdR0DTFu8338qAbrxq-130" style="edgeStyle=orthogonalEdgeStyle;rounded=0;orthogonalLoop=1;jettySize=auto;html=1;exitX=1;exitY=0.25;exitDx=0;exitDy=0;entryX=0;entryY=0.25;entryDx=0;entryDy=0;endArrow=blockThin;endFill=1;" edge="1" parent="u5LdR0DTFu8338qAbrxq-230" source="u5LdR0DTFu8338qAbrxq-124" target="u5LdR0DTFu8338qAbrxq-128">
          <mxGeometry relative="1" as="geometry" />
        </mxCell>
        <mxCell id="u5LdR0DTFu8338qAbrxq-131" style="edgeStyle=orthogonalEdgeStyle;rounded=0;orthogonalLoop=1;jettySize=auto;html=1;exitX=1;exitY=0.75;exitDx=0;exitDy=0;entryX=0;entryY=0.75;entryDx=0;entryDy=0;endArrow=blockThin;endFill=1;" edge="1" parent="u5LdR0DTFu8338qAbrxq-230" source="u5LdR0DTFu8338qAbrxq-124" target="u5LdR0DTFu8338qAbrxq-128">
          <mxGeometry relative="1" as="geometry" />
        </mxCell>
        <mxCell id="u5LdR0DTFu8338qAbrxq-132" style="edgeStyle=orthogonalEdgeStyle;rounded=0;orthogonalLoop=1;jettySize=auto;html=1;exitX=1;exitY=0.25;exitDx=0;exitDy=0;entryX=0;entryY=0.25;entryDx=0;entryDy=0;endArrow=blockThin;endFill=1;" edge="1" parent="u5LdR0DTFu8338qAbrxq-230" source="u5LdR0DTFu8338qAbrxq-134" target="u5LdR0DTFu8338qAbrxq-138">
          <mxGeometry relative="1" as="geometry" />
        </mxCell>
        <mxCell id="u5LdR0DTFu8338qAbrxq-133" style="edgeStyle=orthogonalEdgeStyle;rounded=0;orthogonalLoop=1;jettySize=auto;html=1;exitX=1;exitY=0.75;exitDx=0;exitDy=0;entryX=0;entryY=0.75;entryDx=0;entryDy=0;endArrow=blockThin;endFill=1;" edge="1" parent="u5LdR0DTFu8338qAbrxq-230" source="u5LdR0DTFu8338qAbrxq-134" target="u5LdR0DTFu8338qAbrxq-138">
          <mxGeometry relative="1" as="geometry" />
        </mxCell>
        <mxCell id="u5LdR0DTFu8338qAbrxq-134" value="" style="rounded=0;whiteSpace=wrap;html=1;" vertex="1" parent="u5LdR0DTFu8338qAbrxq-230">
          <mxGeometry x="240" y="295" width="20" height="40" as="geometry" />
        </mxCell>
        <mxCell id="u5LdR0DTFu8338qAbrxq-135" value="" style="triangle;whiteSpace=wrap;html=1;rotation=-90;" vertex="1" parent="u5LdR0DTFu8338qAbrxq-230">
          <mxGeometry x="245" y="325" width="10" height="10" as="geometry" />
        </mxCell>
        <mxCell id="u5LdR0DTFu8338qAbrxq-136" style="edgeStyle=orthogonalEdgeStyle;rounded=0;orthogonalLoop=1;jettySize=auto;html=1;exitX=1;exitY=0.25;exitDx=0;exitDy=0;entryX=0;entryY=0;entryDx=0;entryDy=0;endArrow=blockThin;endFill=1;" edge="1" parent="u5LdR0DTFu8338qAbrxq-230" source="u5LdR0DTFu8338qAbrxq-138" target="u5LdR0DTFu8338qAbrxq-142">
          <mxGeometry relative="1" as="geometry" />
        </mxCell>
        <mxCell id="u5LdR0DTFu8338qAbrxq-137" style="edgeStyle=orthogonalEdgeStyle;rounded=0;orthogonalLoop=1;jettySize=auto;html=1;exitX=1;exitY=0.75;exitDx=0;exitDy=0;entryX=0;entryY=1;entryDx=0;entryDy=0;endArrow=blockThin;endFill=1;" edge="1" parent="u5LdR0DTFu8338qAbrxq-230" source="u5LdR0DTFu8338qAbrxq-138" target="u5LdR0DTFu8338qAbrxq-142">
          <mxGeometry relative="1" as="geometry" />
        </mxCell>
        <mxCell id="u5LdR0DTFu8338qAbrxq-138" value="" style="rounded=0;whiteSpace=wrap;html=1;" vertex="1" parent="u5LdR0DTFu8338qAbrxq-230">
          <mxGeometry x="320" y="295" width="20" height="40" as="geometry" />
        </mxCell>
        <mxCell id="u5LdR0DTFu8338qAbrxq-139" value="" style="triangle;whiteSpace=wrap;html=1;rotation=-90;" vertex="1" parent="u5LdR0DTFu8338qAbrxq-230">
          <mxGeometry x="325" y="325" width="10" height="10" as="geometry" />
        </mxCell>
        <mxCell id="u5LdR0DTFu8338qAbrxq-140" style="edgeStyle=orthogonalEdgeStyle;rounded=0;orthogonalLoop=1;jettySize=auto;html=1;exitX=1;exitY=0;exitDx=0;exitDy=0;entryX=0;entryY=0.25;entryDx=0;entryDy=0;endArrow=blockThin;endFill=1;" edge="1" parent="u5LdR0DTFu8338qAbrxq-230" source="u5LdR0DTFu8338qAbrxq-142" target="u5LdR0DTFu8338qAbrxq-154">
          <mxGeometry relative="1" as="geometry" />
        </mxCell>
        <mxCell id="u5LdR0DTFu8338qAbrxq-141" style="edgeStyle=orthogonalEdgeStyle;rounded=0;orthogonalLoop=1;jettySize=auto;html=1;exitX=1;exitY=1;exitDx=0;exitDy=0;entryX=0;entryY=0.75;entryDx=0;entryDy=0;endArrow=blockThin;endFill=1;" edge="1" parent="u5LdR0DTFu8338qAbrxq-230" source="u5LdR0DTFu8338qAbrxq-142" target="u5LdR0DTFu8338qAbrxq-154">
          <mxGeometry relative="1" as="geometry" />
        </mxCell>
        <mxCell id="u5LdR0DTFu8338qAbrxq-142" value="" style="ellipse;whiteSpace=wrap;html=1;aspect=fixed;fillColor=#F0F0F0;" vertex="1" parent="u5LdR0DTFu8338qAbrxq-230">
          <mxGeometry x="355" y="300" width="30" height="30" as="geometry" />
        </mxCell>
        <mxCell id="u5LdR0DTFu8338qAbrxq-143" value="&lt;font style=&quot;font-size: 14px;&quot;&gt;$$\geq$$&lt;/font&gt;" style="text;html=1;align=center;verticalAlign=middle;whiteSpace=wrap;rounded=0;" vertex="1" parent="u5LdR0DTFu8338qAbrxq-230">
          <mxGeometry x="362.5" y="307.5" width="15" height="15" as="geometry" />
        </mxCell>
        <mxCell id="u5LdR0DTFu8338qAbrxq-144" style="edgeStyle=orthogonalEdgeStyle;rounded=0;orthogonalLoop=1;jettySize=auto;html=1;exitX=1;exitY=0;exitDx=0;exitDy=0;entryX=0;entryY=0.25;entryDx=0;entryDy=0;endArrow=blockThin;endFill=1;" edge="1" parent="u5LdR0DTFu8338qAbrxq-230" source="u5LdR0DTFu8338qAbrxq-146" target="u5LdR0DTFu8338qAbrxq-151">
          <mxGeometry relative="1" as="geometry" />
        </mxCell>
        <mxCell id="u5LdR0DTFu8338qAbrxq-145" style="edgeStyle=orthogonalEdgeStyle;rounded=0;orthogonalLoop=1;jettySize=auto;html=1;exitX=1;exitY=1;exitDx=0;exitDy=0;entryX=0;entryY=0.75;entryDx=0;entryDy=0;endArrow=blockThin;endFill=1;" edge="1" parent="u5LdR0DTFu8338qAbrxq-230" source="u5LdR0DTFu8338qAbrxq-146" target="u5LdR0DTFu8338qAbrxq-151">
          <mxGeometry relative="1" as="geometry" />
        </mxCell>
        <mxCell id="u5LdR0DTFu8338qAbrxq-146" value="" style="ellipse;whiteSpace=wrap;html=1;aspect=fixed;fillColor=#F0F0F0;" vertex="1" parent="u5LdR0DTFu8338qAbrxq-230">
          <mxGeometry x="355" y="125" width="30" height="30" as="geometry" />
        </mxCell>
        <mxCell id="u5LdR0DTFu8338qAbrxq-147" value="&lt;font style=&quot;font-size: 14px;&quot;&gt;$$\geq$$&lt;/font&gt;" style="text;html=1;align=center;verticalAlign=middle;whiteSpace=wrap;rounded=0;" vertex="1" parent="u5LdR0DTFu8338qAbrxq-230">
          <mxGeometry x="362.5" y="132.5" width="15" height="15" as="geometry" />
        </mxCell>
        <mxCell id="u5LdR0DTFu8338qAbrxq-148" value="" style="endArrow=blockThin;html=1;rounded=0;exitX=1;exitY=0.5;exitDx=0;exitDy=0;entryX=0;entryY=0;entryDx=0;entryDy=0;endFill=1;" edge="1" parent="u5LdR0DTFu8338qAbrxq-230" source="u5LdR0DTFu8338qAbrxq-115" target="u5LdR0DTFu8338qAbrxq-146">
          <mxGeometry width="50" height="50" relative="1" as="geometry">
            <mxPoint x="390" y="110" as="sourcePoint" />
            <mxPoint x="440" y="60" as="targetPoint" />
            <Array as="points">
              <mxPoint x="350" y="70" />
            </Array>
          </mxGeometry>
        </mxCell>
        <mxCell id="u5LdR0DTFu8338qAbrxq-149" value="" style="endArrow=blockThin;html=1;rounded=0;exitX=1;exitY=0.5;exitDx=0;exitDy=0;entryX=0;entryY=1;entryDx=0;entryDy=0;endFill=1;" edge="1" parent="u5LdR0DTFu8338qAbrxq-230" source="u5LdR0DTFu8338qAbrxq-117" target="u5LdR0DTFu8338qAbrxq-146">
          <mxGeometry width="50" height="50" relative="1" as="geometry">
            <mxPoint x="400" y="240" as="sourcePoint" />
            <mxPoint x="450" y="190" as="targetPoint" />
            <Array as="points">
              <mxPoint x="350" y="210" />
            </Array>
          </mxGeometry>
        </mxCell>
        <mxCell id="u5LdR0DTFu8338qAbrxq-150" style="edgeStyle=orthogonalEdgeStyle;rounded=0;orthogonalLoop=1;jettySize=auto;html=1;exitX=1;exitY=0.25;exitDx=0;exitDy=0;entryX=0;entryY=0;entryDx=0;entryDy=0;endArrow=blockThin;endFill=1;" edge="1" parent="u5LdR0DTFu8338qAbrxq-230" source="u5LdR0DTFu8338qAbrxq-151" target="u5LdR0DTFu8338qAbrxq-157">
          <mxGeometry relative="1" as="geometry" />
        </mxCell>
        <mxCell id="u5LdR0DTFu8338qAbrxq-151" value="" style="rounded=0;whiteSpace=wrap;html=1;" vertex="1" parent="u5LdR0DTFu8338qAbrxq-230">
          <mxGeometry x="400" y="120" width="20" height="40" as="geometry" />
        </mxCell>
        <mxCell id="u5LdR0DTFu8338qAbrxq-152" value="" style="triangle;whiteSpace=wrap;html=1;rotation=-90;" vertex="1" parent="u5LdR0DTFu8338qAbrxq-230">
          <mxGeometry x="405" y="150" width="10" height="10" as="geometry" />
        </mxCell>
        <mxCell id="u5LdR0DTFu8338qAbrxq-153" style="edgeStyle=orthogonalEdgeStyle;rounded=0;orthogonalLoop=1;jettySize=auto;html=1;exitX=1;exitY=0.75;exitDx=0;exitDy=0;entryX=0;entryY=1;entryDx=0;entryDy=0;endArrow=blockThin;endFill=1;" edge="1" parent="u5LdR0DTFu8338qAbrxq-230" source="u5LdR0DTFu8338qAbrxq-154" target="u5LdR0DTFu8338qAbrxq-160">
          <mxGeometry relative="1" as="geometry" />
        </mxCell>
        <mxCell id="u5LdR0DTFu8338qAbrxq-154" value="" style="rounded=0;whiteSpace=wrap;html=1;" vertex="1" parent="u5LdR0DTFu8338qAbrxq-230">
          <mxGeometry x="400" y="295" width="20" height="40" as="geometry" />
        </mxCell>
        <mxCell id="u5LdR0DTFu8338qAbrxq-155" value="" style="triangle;whiteSpace=wrap;html=1;rotation=-90;" vertex="1" parent="u5LdR0DTFu8338qAbrxq-230">
          <mxGeometry x="405" y="325" width="10" height="10" as="geometry" />
        </mxCell>
        <mxCell id="u5LdR0DTFu8338qAbrxq-156" style="edgeStyle=orthogonalEdgeStyle;rounded=0;orthogonalLoop=1;jettySize=auto;html=1;exitX=1;exitY=0.5;exitDx=0;exitDy=0;endArrow=blockThin;endFill=1;" edge="1" parent="u5LdR0DTFu8338qAbrxq-230" source="u5LdR0DTFu8338qAbrxq-157">
          <mxGeometry relative="1" as="geometry">
            <mxPoint x="490" y="140.1428571428571" as="targetPoint" />
          </mxGeometry>
        </mxCell>
        <mxCell id="u5LdR0DTFu8338qAbrxq-157" value="" style="ellipse;whiteSpace=wrap;html=1;aspect=fixed;fillColor=#F0F0F0;" vertex="1" parent="u5LdR0DTFu8338qAbrxq-230">
          <mxGeometry x="440" y="125" width="30" height="30" as="geometry" />
        </mxCell>
        <mxCell id="u5LdR0DTFu8338qAbrxq-158" value="&lt;font style=&quot;font-size: 14px;&quot;&gt;$$\geq$$&lt;/font&gt;" style="text;html=1;align=center;verticalAlign=middle;whiteSpace=wrap;rounded=0;" vertex="1" parent="u5LdR0DTFu8338qAbrxq-230">
          <mxGeometry x="447.5" y="132.5" width="15" height="15" as="geometry" />
        </mxCell>
        <mxCell id="u5LdR0DTFu8338qAbrxq-159" style="edgeStyle=orthogonalEdgeStyle;rounded=0;orthogonalLoop=1;jettySize=auto;html=1;exitX=1;exitY=0.5;exitDx=0;exitDy=0;endArrow=blockThin;endFill=1;" edge="1" parent="u5LdR0DTFu8338qAbrxq-230" source="u5LdR0DTFu8338qAbrxq-160">
          <mxGeometry relative="1" as="geometry">
            <mxPoint x="490" y="314.9047619047619" as="targetPoint" />
          </mxGeometry>
        </mxCell>
        <mxCell id="u5LdR0DTFu8338qAbrxq-160" value="" style="ellipse;whiteSpace=wrap;html=1;aspect=fixed;fillColor=#F0F0F0;" vertex="1" parent="u5LdR0DTFu8338qAbrxq-230">
          <mxGeometry x="440" y="300" width="30" height="30" as="geometry" />
        </mxCell>
        <mxCell id="u5LdR0DTFu8338qAbrxq-161" value="&lt;font style=&quot;font-size: 14px;&quot;&gt;$$\geq$$&lt;/font&gt;" style="text;html=1;align=center;verticalAlign=middle;whiteSpace=wrap;rounded=0;" vertex="1" parent="u5LdR0DTFu8338qAbrxq-230">
          <mxGeometry x="447.5" y="307.5" width="15" height="15" as="geometry" />
        </mxCell>
        <mxCell id="u5LdR0DTFu8338qAbrxq-162" value="" style="ellipse;whiteSpace=wrap;html=1;aspect=fixed;fillColor=#000000;" vertex="1" parent="u5LdR0DTFu8338qAbrxq-230">
          <mxGeometry x="380" y="120" width="5" height="5" as="geometry" />
        </mxCell>
        <mxCell id="u5LdR0DTFu8338qAbrxq-163" value="" style="ellipse;whiteSpace=wrap;html=1;aspect=fixed;fillColor=#000000;" vertex="1" parent="u5LdR0DTFu8338qAbrxq-230">
          <mxGeometry x="380" y="330" width="5" height="5" as="geometry" />
        </mxCell>
        <mxCell id="u5LdR0DTFu8338qAbrxq-164" value="" style="endArrow=blockThin;html=1;rounded=0;exitX=1;exitY=0.25;exitDx=0;exitDy=0;entryX=0;entryY=1;entryDx=0;entryDy=0;endFill=1;" edge="1" parent="u5LdR0DTFu8338qAbrxq-230" source="u5LdR0DTFu8338qAbrxq-154" target="u5LdR0DTFu8338qAbrxq-157">
          <mxGeometry width="50" height="50" relative="1" as="geometry">
            <mxPoint x="430" y="290" as="sourcePoint" />
            <mxPoint x="480" y="240" as="targetPoint" />
            <Array as="points">
              <mxPoint x="430" y="305" />
            </Array>
          </mxGeometry>
        </mxCell>
        <mxCell id="u5LdR0DTFu8338qAbrxq-165" value="" style="endArrow=blockThin;html=1;rounded=0;exitX=1;exitY=0.75;exitDx=0;exitDy=0;entryX=0;entryY=0;entryDx=0;entryDy=0;endFill=1;" edge="1" parent="u5LdR0DTFu8338qAbrxq-230" source="u5LdR0DTFu8338qAbrxq-151" target="u5LdR0DTFu8338qAbrxq-160">
          <mxGeometry width="50" height="50" relative="1" as="geometry">
            <mxPoint x="450" y="230" as="sourcePoint" />
            <mxPoint x="500" y="180" as="targetPoint" />
            <Array as="points">
              <mxPoint x="430" y="150" />
            </Array>
          </mxGeometry>
        </mxCell>
        <mxCell id="u5LdR0DTFu8338qAbrxq-166" value="&lt;font style=&quot;font-size: 14px;&quot;&gt;$$y_0$$&lt;/font&gt;" style="text;html=1;align=center;verticalAlign=middle;whiteSpace=wrap;rounded=0;" vertex="1" parent="u5LdR0DTFu8338qAbrxq-230">
          <mxGeometry x="490" y="127.5" width="20" height="20" as="geometry" />
        </mxCell>
        <mxCell id="u5LdR0DTFu8338qAbrxq-167" value="&lt;font style=&quot;font-size: 14px;&quot;&gt;$$y_1$$&lt;/font&gt;" style="text;html=1;align=center;verticalAlign=middle;whiteSpace=wrap;rounded=0;" vertex="1" parent="u5LdR0DTFu8338qAbrxq-230">
          <mxGeometry x="490" y="302.5" width="20" height="20" as="geometry" />
        </mxCell>
        <mxCell id="u5LdR0DTFu8338qAbrxq-235" value="" style="rounded=0;whiteSpace=wrap;html=1;strokeWidth=0.3;fillColor=#fff2cc;strokeColor=#000000;" vertex="1" parent="1">
          <mxGeometry x="365" y="99.38" width="10" height="20" as="geometry" />
        </mxCell>
        <mxCell id="u5LdR0DTFu8338qAbrxq-236" value="" style="triangle;whiteSpace=wrap;html=1;rotation=-90;strokeWidth=0.3;fillColor=#fff2cc;strokeColor=#000000;" vertex="1" parent="1">
          <mxGeometry x="366.75" y="113.38" width="6.5" height="5" as="geometry" />
        </mxCell>
        <mxCell id="u5LdR0DTFu8338qAbrxq-237" value="" style="rounded=0;whiteSpace=wrap;html=1;strokeWidth=0.3;fillColor=#fff2cc;strokeColor=#000000;" vertex="1" parent="1">
          <mxGeometry x="365" y="160" width="10" height="20" as="geometry" />
        </mxCell>
        <mxCell id="u5LdR0DTFu8338qAbrxq-238" value="" style="triangle;whiteSpace=wrap;html=1;rotation=-90;strokeWidth=0.3;fillColor=#fff2cc;strokeColor=#000000;" vertex="1" parent="1">
          <mxGeometry x="366.75" y="173.88" width="6.5" height="5" as="geometry" />
        </mxCell>
        <mxCell id="u5LdR0DTFu8338qAbrxq-240" value="" style="endArrow=blockThin;html=1;rounded=0;entryX=-0.012;entryY=0.306;entryDx=0;entryDy=0;entryPerimeter=0;endFill=1;endSize=1;strokeWidth=0.3;exitX=0.921;exitY=0.205;exitDx=0;exitDy=0;exitPerimeter=0;" edge="1" parent="1" source="u5LdR0DTFu8338qAbrxq-169" target="u5LdR0DTFu8338qAbrxq-180">
          <mxGeometry width="50" height="50" relative="1" as="geometry">
            <mxPoint x="169" y="65" as="sourcePoint" />
            <mxPoint x="225" y="55" as="targetPoint" />
          </mxGeometry>
        </mxCell>
        <mxCell id="u5LdR0DTFu8338qAbrxq-241" value="" style="endArrow=blockThin;html=1;rounded=0;exitX=0.922;exitY=0.795;exitDx=0;exitDy=0;exitPerimeter=0;entryX=-0.012;entryY=0.306;entryDx=0;entryDy=0;entryPerimeter=0;endFill=1;endSize=1;strokeWidth=0.3;" edge="1" parent="1" source="u5LdR0DTFu8338qAbrxq-169">
          <mxGeometry width="50" height="50" relative="1" as="geometry">
            <mxPoint x="162" y="72.62" as="sourcePoint" />
            <mxPoint x="176" y="72.62" as="targetPoint" />
          </mxGeometry>
        </mxCell>
        <mxCell id="u5LdR0DTFu8338qAbrxq-245" value="" style="endArrow=blockThin;html=1;rounded=0;exitX=0.839;exitY=0.33;exitDx=0;exitDy=0;exitPerimeter=0;endFill=1;endSize=1;strokeWidth=0.3;" edge="1" parent="1">
          <mxGeometry width="50" height="50" relative="1" as="geometry">
            <mxPoint x="186" y="65" as="sourcePoint" />
            <mxPoint x="199" y="65" as="targetPoint" />
          </mxGeometry>
        </mxCell>
        <mxCell id="u5LdR0DTFu8338qAbrxq-246" value="" style="endArrow=blockThin;html=1;rounded=0;exitX=1.016;exitY=0.712;exitDx=0;exitDy=0;exitPerimeter=0;endFill=1;endSize=1;strokeWidth=0.3;entryX=0.162;entryY=0.322;entryDx=0;entryDy=0;entryPerimeter=0;" edge="1" parent="1" source="u5LdR0DTFu8338qAbrxq-180" target="u5LdR0DTFu8338qAbrxq-193">
          <mxGeometry width="50" height="50" relative="1" as="geometry">
            <mxPoint x="186" y="72.66" as="sourcePoint" />
            <mxPoint x="199" y="72.66" as="targetPoint" />
            <Array as="points">
              <mxPoint x="187" y="73" />
              <mxPoint x="188" y="73" />
              <mxPoint x="189" y="73" />
              <mxPoint x="190" y="73" />
              <mxPoint x="191" y="73" />
            </Array>
          </mxGeometry>
        </mxCell>
        <mxCell id="u5LdR0DTFu8338qAbrxq-247" value="" style="endArrow=blockThin;html=1;rounded=0;entryX=-0.012;entryY=0.306;entryDx=0;entryDy=0;entryPerimeter=0;endFill=1;endSize=1;strokeWidth=0.3;" edge="1" parent="1">
          <mxGeometry width="50" height="50" relative="1" as="geometry">
            <mxPoint x="168" y="90" as="sourcePoint" />
            <mxPoint x="176" y="90.03" as="targetPoint" />
          </mxGeometry>
        </mxCell>
        <mxCell id="u5LdR0DTFu8338qAbrxq-248" value="" style="endArrow=blockThin;html=1;rounded=0;exitX=0.902;exitY=0.783;exitDx=0;exitDy=0;exitPerimeter=0;entryX=-0.012;entryY=0.306;entryDx=0;entryDy=0;entryPerimeter=0;endFill=1;endSize=1;strokeWidth=0.3;" edge="1" parent="1" source="u5LdR0DTFu8338qAbrxq-174">
          <mxGeometry width="50" height="50" relative="1" as="geometry">
            <mxPoint x="162" y="97.65" as="sourcePoint" />
            <mxPoint x="176" y="97.65" as="targetPoint" />
          </mxGeometry>
        </mxCell>
        <mxCell id="u5LdR0DTFu8338qAbrxq-249" value="" style="endArrow=blockThin;html=1;rounded=0;exitX=0.839;exitY=0.33;exitDx=0;exitDy=0;exitPerimeter=0;entryX=0.154;entryY=0.81;entryDx=0;entryDy=0;entryPerimeter=0;endFill=1;endSize=1;strokeWidth=0.3;" edge="1" parent="1" target="u5LdR0DTFu8338qAbrxq-193">
          <mxGeometry width="50" height="50" relative="1" as="geometry">
            <mxPoint x="186" y="97.75" as="sourcePoint" />
            <mxPoint x="200" y="97.75" as="targetPoint" />
          </mxGeometry>
        </mxCell>
        <mxCell id="u5LdR0DTFu8338qAbrxq-250" value="" style="endArrow=blockThin;html=1;rounded=0;exitX=0.839;exitY=0.33;exitDx=0;exitDy=0;exitPerimeter=0;entryX=0.127;entryY=0.819;entryDx=0;entryDy=0;entryPerimeter=0;endFill=1;endSize=1;strokeWidth=0.3;" edge="1" parent="1" target="u5LdR0DTFu8338qAbrxq-191">
          <mxGeometry width="50" height="50" relative="1" as="geometry">
            <mxPoint x="186" y="90" as="sourcePoint" />
            <mxPoint x="200" y="90" as="targetPoint" />
            <Array as="points">
              <mxPoint x="191" y="90" />
            </Array>
          </mxGeometry>
        </mxCell>
        <mxCell id="u5LdR0DTFu8338qAbrxq-251" value="" style="endArrow=blockThin;html=1;rounded=0;exitX=0.839;exitY=0.33;exitDx=0;exitDy=0;exitPerimeter=0;endFill=1;endSize=1;strokeWidth=0.3;entryX=0;entryY=0.5;entryDx=0;entryDy=0;" edge="1" parent="1" target="u5LdR0DTFu8338qAbrxq-200">
          <mxGeometry width="50" height="50" relative="1" as="geometry">
            <mxPoint x="209.75" y="94.25" as="sourcePoint" />
            <mxPoint x="221" y="94" as="targetPoint" />
          </mxGeometry>
        </mxCell>
        <mxCell id="u5LdR0DTFu8338qAbrxq-252" value="" style="endArrow=blockThin;html=1;rounded=0;exitX=0.839;exitY=0.33;exitDx=0;exitDy=0;exitPerimeter=0;endFill=1;endSize=1;strokeWidth=0.3;entryX=-0.009;entryY=0.511;entryDx=0;entryDy=0;entryPerimeter=0;" edge="1" parent="1" target="u5LdR0DTFu8338qAbrxq-198">
          <mxGeometry width="50" height="50" relative="1" as="geometry">
            <mxPoint x="209.75" y="69.5" as="sourcePoint" />
            <mxPoint x="222" y="69.25" as="targetPoint" />
          </mxGeometry>
        </mxCell>
        <mxCell id="u5LdR0DTFu8338qAbrxq-253" value="" style="endArrow=blockThin;html=1;rounded=0;exitX=0.839;exitY=0.33;exitDx=0;exitDy=0;exitPerimeter=0;endFill=1;endSize=1;strokeWidth=0.3;entryX=0;entryY=0;entryDx=0;entryDy=0;" edge="1" parent="1" target="u5LdR0DTFu8338qAbrxq-208">
          <mxGeometry width="50" height="50" relative="1" as="geometry">
            <mxPoint x="232.25" y="70" as="sourcePoint" />
            <mxPoint x="244.5" y="70.5" as="targetPoint" />
            <Array as="points">
              <mxPoint x="237" y="70" />
            </Array>
          </mxGeometry>
        </mxCell>
        <mxCell id="u5LdR0DTFu8338qAbrxq-254" value="" style="endArrow=blockThin;html=1;rounded=0;exitX=0.839;exitY=0.33;exitDx=0;exitDy=0;exitPerimeter=0;endFill=1;endSize=1;strokeWidth=0.3;entryX=0;entryY=1;entryDx=0;entryDy=0;" edge="1" parent="1" target="u5LdR0DTFu8338qAbrxq-208">
          <mxGeometry width="50" height="50" relative="1" as="geometry">
            <mxPoint x="232.25" y="94.38" as="sourcePoint" />
            <mxPoint x="247" y="103.38" as="targetPoint" />
            <Array as="points">
              <mxPoint x="238" y="94.38" />
            </Array>
          </mxGeometry>
        </mxCell>
        <mxCell id="u5LdR0DTFu8338qAbrxq-255" value="" style="endArrow=blockThin;html=1;rounded=0;exitX=0.839;exitY=0.33;exitDx=0;exitDy=0;exitPerimeter=0;entryX=-0.012;entryY=0.306;entryDx=0;entryDy=0;entryPerimeter=0;endFill=1;endSize=1;strokeWidth=0.3;" edge="1" parent="1">
          <mxGeometry width="50" height="50" relative="1" as="geometry">
            <mxPoint x="257.25" y="79" as="sourcePoint" />
            <mxPoint x="271.25" y="79" as="targetPoint" />
          </mxGeometry>
        </mxCell>
        <mxCell id="u5LdR0DTFu8338qAbrxq-256" value="" style="endArrow=blockThin;html=1;rounded=0;exitX=0.839;exitY=0.33;exitDx=0;exitDy=0;exitPerimeter=0;entryX=-0.012;entryY=0.306;entryDx=0;entryDy=0;entryPerimeter=0;endFill=1;endSize=1;strokeWidth=0.3;" edge="1" parent="1">
          <mxGeometry width="50" height="50" relative="1" as="geometry">
            <mxPoint x="257.25" y="86.62" as="sourcePoint" />
            <mxPoint x="271.25" y="86.62" as="targetPoint" />
          </mxGeometry>
        </mxCell>
        <mxCell id="u5LdR0DTFu8338qAbrxq-257" value="" style="endArrow=blockThin;html=1;rounded=0;exitX=0.839;exitY=0.33;exitDx=0;exitDy=0;exitPerimeter=0;entryX=-0.012;entryY=0.306;entryDx=0;entryDy=0;entryPerimeter=0;endFill=1;endSize=1;strokeWidth=0.3;" edge="1" parent="1">
          <mxGeometry width="50" height="50" relative="1" as="geometry">
            <mxPoint x="281" y="79" as="sourcePoint" />
            <mxPoint x="295" y="79" as="targetPoint" />
          </mxGeometry>
        </mxCell>
        <mxCell id="u5LdR0DTFu8338qAbrxq-258" value="" style="endArrow=blockThin;html=1;rounded=0;exitX=0.839;exitY=0.33;exitDx=0;exitDy=0;exitPerimeter=0;endFill=1;endSize=1;strokeWidth=0.3;entryX=0;entryY=0;entryDx=0;entryDy=0;" edge="1" parent="1" target="u5LdR0DTFu8338qAbrxq-261">
          <mxGeometry width="50" height="50" relative="1" as="geometry">
            <mxPoint x="281.25" y="86.75" as="sourcePoint" />
            <mxPoint x="299" y="114" as="targetPoint" />
            <Array as="points">
              <mxPoint x="286" y="86.75" />
            </Array>
          </mxGeometry>
        </mxCell>
        <mxCell id="u5LdR0DTFu8338qAbrxq-259" value="" style="endArrow=blockThin;html=1;rounded=0;exitX=0.839;exitY=0.33;exitDx=0;exitDy=0;exitPerimeter=0;entryX=0;entryY=0.5;entryDx=0;entryDy=0;endFill=1;endSize=1;strokeWidth=0.3;" edge="1" parent="1" target="u5LdR0DTFu8338qAbrxq-218">
          <mxGeometry width="50" height="50" relative="1" as="geometry">
            <mxPoint x="305.5" y="83.31" as="sourcePoint" />
            <mxPoint x="319.5" y="83.31" as="targetPoint" />
          </mxGeometry>
        </mxCell>
        <mxCell id="u5LdR0DTFu8338qAbrxq-260" value="" style="ellipse;whiteSpace=wrap;html=1;aspect=fixed;fillColor=#e1d5e7;strokeColor=#000000;strokeWidth=0.3;" vertex="1" parent="1">
          <mxGeometry x="246.25" y="126.30000000000001" width="12.5" height="12.5" as="geometry" />
        </mxCell>
        <mxCell id="u5LdR0DTFu8338qAbrxq-262" value="" style="ellipse;whiteSpace=wrap;html=1;aspect=fixed;fillColor=#e1d5e7;strokeColor=#000000;strokeWidth=0.3;" vertex="1" parent="1">
          <mxGeometry x="197.25" y="137.93" width="12.5" height="12.5" as="geometry" />
        </mxCell>
        <mxCell id="u5LdR0DTFu8338qAbrxq-263" value="" style="ellipse;whiteSpace=wrap;html=1;aspect=fixed;fillColor=#e1d5e7;strokeColor=#000000;strokeWidth=0.3;" vertex="1" parent="1">
          <mxGeometry x="197.25" y="112.92999999999999" width="12.5" height="12.5" as="geometry" />
        </mxCell>
        <mxCell id="u5LdR0DTFu8338qAbrxq-266" value="&lt;font style=&quot;font-size: 6px;&quot;&gt;$$\geq$$&lt;/font&gt;" style="text;html=1;align=center;verticalAlign=middle;whiteSpace=wrap;rounded=0;fillColor=none;strokeColor=none;" vertex="1" parent="1">
          <mxGeometry x="196" y="110.42999999999999" width="15" height="15" as="geometry" />
        </mxCell>
        <mxCell id="u5LdR0DTFu8338qAbrxq-267" value="&lt;font style=&quot;font-size: 6px;&quot;&gt;$$\geq$$&lt;/font&gt;" style="text;html=1;align=center;verticalAlign=middle;whiteSpace=wrap;rounded=0;fillColor=none;strokeColor=none;" vertex="1" parent="1">
          <mxGeometry x="196" y="135.43" width="15" height="15" as="geometry" />
        </mxCell>
        <mxCell id="u5LdR0DTFu8338qAbrxq-268" value="&lt;font style=&quot;font-size: 6px;&quot;&gt;$$\geq$$&lt;/font&gt;" style="text;html=1;align=center;verticalAlign=middle;whiteSpace=wrap;rounded=0;fillColor=none;strokeColor=none;" vertex="1" parent="1">
          <mxGeometry x="245" y="123.8" width="15" height="15" as="geometry" />
        </mxCell>
        <mxCell id="u5LdR0DTFu8338qAbrxq-270" value="" style="rounded=0;whiteSpace=wrap;html=1;strokeWidth=0.3;fillColor=#fff2cc;strokeColor=#000000;" vertex="1" parent="1">
          <mxGeometry x="176" y="108.55" width="10" height="20" as="geometry" />
        </mxCell>
        <mxCell id="u5LdR0DTFu8338qAbrxq-271" value="" style="triangle;whiteSpace=wrap;html=1;rotation=-90;strokeWidth=0.3;fillColor=#fff2cc;strokeColor=#000000;" vertex="1" parent="1">
          <mxGeometry x="177.75" y="122.55" width="6.5" height="5" as="geometry" />
        </mxCell>
        <mxCell id="u5LdR0DTFu8338qAbrxq-272" value="" style="rounded=0;whiteSpace=wrap;html=1;strokeWidth=0.3;fillColor=#fff2cc;strokeColor=#000000;" vertex="1" parent="1">
          <mxGeometry x="176" y="133.55" width="10" height="20" as="geometry" />
        </mxCell>
        <mxCell id="u5LdR0DTFu8338qAbrxq-273" value="" style="triangle;whiteSpace=wrap;html=1;rotation=-90;strokeWidth=0.3;fillColor=#fff2cc;strokeColor=#000000;" vertex="1" parent="1">
          <mxGeometry x="177.75" y="147.55" width="6.5" height="5" as="geometry" />
        </mxCell>
        <mxCell id="u5LdR0DTFu8338qAbrxq-274" value="" style="rounded=0;whiteSpace=wrap;html=1;strokeWidth=0.3;fillColor=#fff2cc;strokeColor=#000000;" vertex="1" parent="1">
          <mxGeometry x="222.25" y="109.17999999999999" width="10" height="20" as="geometry" />
        </mxCell>
        <mxCell id="u5LdR0DTFu8338qAbrxq-275" value="" style="triangle;whiteSpace=wrap;html=1;rotation=-90;strokeWidth=0.3;fillColor=#fff2cc;strokeColor=#000000;" vertex="1" parent="1">
          <mxGeometry x="224" y="123.17999999999999" width="6.5" height="5" as="geometry" />
        </mxCell>
        <mxCell id="u5LdR0DTFu8338qAbrxq-276" value="" style="rounded=0;whiteSpace=wrap;html=1;strokeWidth=0.3;fillColor=#fff2cc;strokeColor=#000000;" vertex="1" parent="1">
          <mxGeometry x="222.25" y="134.18" width="10" height="20" as="geometry" />
        </mxCell>
        <mxCell id="u5LdR0DTFu8338qAbrxq-277" value="" style="triangle;whiteSpace=wrap;html=1;rotation=-90;strokeWidth=0.3;fillColor=#fff2cc;strokeColor=#000000;" vertex="1" parent="1">
          <mxGeometry x="224" y="148.18" width="6.5" height="5" as="geometry" />
        </mxCell>
        <mxCell id="u5LdR0DTFu8338qAbrxq-278" value="" style="rounded=0;whiteSpace=wrap;html=1;strokeWidth=0.3;fillColor=#fff2cc;strokeColor=#000000;" vertex="1" parent="1">
          <mxGeometry x="271.25" y="122.55" width="10" height="20" as="geometry" />
        </mxCell>
        <mxCell id="u5LdR0DTFu8338qAbrxq-279" value="" style="triangle;whiteSpace=wrap;html=1;rotation=-90;strokeWidth=0.3;fillColor=#fff2cc;strokeColor=#000000;" vertex="1" parent="1">
          <mxGeometry x="273" y="136.55" width="6.5" height="5" as="geometry" />
        </mxCell>
        <mxCell id="u5LdR0DTFu8338qAbrxq-280" value="" style="rounded=0;whiteSpace=wrap;html=1;strokeWidth=0.3;fillColor=#fff2cc;strokeColor=#000000;" vertex="1" parent="1">
          <mxGeometry x="318" y="123.17999999999999" width="10" height="20" as="geometry" />
        </mxCell>
        <mxCell id="u5LdR0DTFu8338qAbrxq-281" value="" style="triangle;whiteSpace=wrap;html=1;rotation=-90;strokeWidth=0.3;fillColor=#fff2cc;strokeColor=#000000;" vertex="1" parent="1">
          <mxGeometry x="319.75" y="137.18" width="6.5" height="5" as="geometry" />
        </mxCell>
        <mxCell id="u5LdR0DTFu8338qAbrxq-282" value="" style="endArrow=blockThin;html=1;rounded=0;exitX=0.903;exitY=0.18;exitDx=0;exitDy=0;exitPerimeter=0;entryX=-0.012;entryY=0.306;entryDx=0;entryDy=0;entryPerimeter=0;endFill=1;endSize=1;strokeWidth=0.3;" edge="1" parent="1" target="u5LdR0DTFu8338qAbrxq-270" source="u5LdR0DTFu8338qAbrxq-264">
          <mxGeometry width="50" height="50" relative="1" as="geometry">
            <mxPoint x="162" y="114.8" as="sourcePoint" />
            <mxPoint x="225" y="104.8" as="targetPoint" />
          </mxGeometry>
        </mxCell>
        <mxCell id="u5LdR0DTFu8338qAbrxq-283" value="" style="endArrow=blockThin;html=1;rounded=0;exitX=0.907;exitY=0.804;exitDx=0;exitDy=0;exitPerimeter=0;entryX=-0.012;entryY=0.306;entryDx=0;entryDy=0;entryPerimeter=0;endFill=1;endSize=1;strokeWidth=0.3;" edge="1" parent="1" source="u5LdR0DTFu8338qAbrxq-264">
          <mxGeometry width="50" height="50" relative="1" as="geometry">
            <mxPoint x="162" y="122.42" as="sourcePoint" />
            <mxPoint x="176" y="122.42" as="targetPoint" />
          </mxGeometry>
        </mxCell>
        <mxCell id="u5LdR0DTFu8338qAbrxq-284" value="" style="endArrow=blockThin;html=1;rounded=0;exitX=0.839;exitY=0.33;exitDx=0;exitDy=0;exitPerimeter=0;endFill=1;endSize=1;strokeWidth=0.3;" edge="1" parent="1">
          <mxGeometry width="50" height="50" relative="1" as="geometry">
            <mxPoint x="186" y="114.8" as="sourcePoint" />
            <mxPoint x="199" y="114.8" as="targetPoint" />
          </mxGeometry>
        </mxCell>
        <mxCell id="u5LdR0DTFu8338qAbrxq-285" value="" style="endArrow=blockThin;html=1;rounded=0;exitX=1.016;exitY=0.712;exitDx=0;exitDy=0;exitPerimeter=0;endFill=1;endSize=1;strokeWidth=0.3;entryX=0.162;entryY=0.322;entryDx=0;entryDy=0;entryPerimeter=0;" edge="1" parent="1" source="u5LdR0DTFu8338qAbrxq-270" target="u5LdR0DTFu8338qAbrxq-267">
          <mxGeometry width="50" height="50" relative="1" as="geometry">
            <mxPoint x="186" y="122.46" as="sourcePoint" />
            <mxPoint x="199" y="122.46" as="targetPoint" />
            <Array as="points">
              <mxPoint x="187" y="122.8" />
              <mxPoint x="188" y="122.8" />
              <mxPoint x="189" y="122.8" />
              <mxPoint x="190" y="122.8" />
              <mxPoint x="191" y="122.8" />
            </Array>
          </mxGeometry>
        </mxCell>
        <mxCell id="u5LdR0DTFu8338qAbrxq-286" value="" style="endArrow=blockThin;html=1;rounded=0;entryX=-0.012;entryY=0.306;entryDx=0;entryDy=0;entryPerimeter=0;endFill=1;endSize=1;strokeWidth=0.3;exitX=0.847;exitY=0.302;exitDx=0;exitDy=0;exitPerimeter=0;" edge="1" parent="1" source="u5LdR0DTFu8338qAbrxq-301">
          <mxGeometry width="50" height="50" relative="1" as="geometry">
            <mxPoint x="169" y="140" as="sourcePoint" />
            <mxPoint x="176" y="139.82999999999998" as="targetPoint" />
          </mxGeometry>
        </mxCell>
        <mxCell id="u5LdR0DTFu8338qAbrxq-287" value="" style="endArrow=blockThin;html=1;rounded=0;exitX=0.839;exitY=0.799;exitDx=0;exitDy=0;exitPerimeter=0;entryX=-0.012;entryY=0.306;entryDx=0;entryDy=0;entryPerimeter=0;endFill=1;endSize=1;strokeWidth=0.3;" edge="1" parent="1" source="u5LdR0DTFu8338qAbrxq-301">
          <mxGeometry width="50" height="50" relative="1" as="geometry">
            <mxPoint x="162" y="147.45" as="sourcePoint" />
            <mxPoint x="176" y="147.45" as="targetPoint" />
          </mxGeometry>
        </mxCell>
        <mxCell id="u5LdR0DTFu8338qAbrxq-288" value="" style="endArrow=blockThin;html=1;rounded=0;exitX=0.839;exitY=0.33;exitDx=0;exitDy=0;exitPerimeter=0;entryX=0.154;entryY=0.81;entryDx=0;entryDy=0;entryPerimeter=0;endFill=1;endSize=1;strokeWidth=0.3;" edge="1" parent="1" target="u5LdR0DTFu8338qAbrxq-267">
          <mxGeometry width="50" height="50" relative="1" as="geometry">
            <mxPoint x="186" y="147.55" as="sourcePoint" />
            <mxPoint x="200" y="147.55" as="targetPoint" />
          </mxGeometry>
        </mxCell>
        <mxCell id="u5LdR0DTFu8338qAbrxq-289" value="" style="endArrow=blockThin;html=1;rounded=0;exitX=0.839;exitY=0.33;exitDx=0;exitDy=0;exitPerimeter=0;entryX=0.127;entryY=0.819;entryDx=0;entryDy=0;entryPerimeter=0;endFill=1;endSize=1;strokeWidth=0.3;" edge="1" parent="1" target="u5LdR0DTFu8338qAbrxq-266">
          <mxGeometry width="50" height="50" relative="1" as="geometry">
            <mxPoint x="186" y="139.8" as="sourcePoint" />
            <mxPoint x="200" y="139.8" as="targetPoint" />
            <Array as="points">
              <mxPoint x="191" y="139.8" />
            </Array>
          </mxGeometry>
        </mxCell>
        <mxCell id="u5LdR0DTFu8338qAbrxq-290" value="" style="endArrow=blockThin;html=1;rounded=0;exitX=0.839;exitY=0.33;exitDx=0;exitDy=0;exitPerimeter=0;endFill=1;endSize=1;strokeWidth=0.3;entryX=0;entryY=0.5;entryDx=0;entryDy=0;" edge="1" parent="1" target="u5LdR0DTFu8338qAbrxq-276">
          <mxGeometry width="50" height="50" relative="1" as="geometry">
            <mxPoint x="209.75" y="144.05" as="sourcePoint" />
            <mxPoint x="221" y="143.8" as="targetPoint" />
          </mxGeometry>
        </mxCell>
        <mxCell id="u5LdR0DTFu8338qAbrxq-291" value="" style="endArrow=blockThin;html=1;rounded=0;exitX=0.839;exitY=0.33;exitDx=0;exitDy=0;exitPerimeter=0;endFill=1;endSize=1;strokeWidth=0.3;entryX=-0.009;entryY=0.511;entryDx=0;entryDy=0;entryPerimeter=0;" edge="1" parent="1" target="u5LdR0DTFu8338qAbrxq-274">
          <mxGeometry width="50" height="50" relative="1" as="geometry">
            <mxPoint x="209.75" y="119.3" as="sourcePoint" />
            <mxPoint x="222" y="119.05" as="targetPoint" />
          </mxGeometry>
        </mxCell>
        <mxCell id="u5LdR0DTFu8338qAbrxq-292" value="" style="endArrow=blockThin;html=1;rounded=0;exitX=0.839;exitY=0.33;exitDx=0;exitDy=0;exitPerimeter=0;endFill=1;endSize=1;strokeWidth=0.3;entryX=0;entryY=0;entryDx=0;entryDy=0;" edge="1" parent="1" target="u5LdR0DTFu8338qAbrxq-260">
          <mxGeometry width="50" height="50" relative="1" as="geometry">
            <mxPoint x="232.25" y="119.8" as="sourcePoint" />
            <mxPoint x="244.5" y="120.3" as="targetPoint" />
            <Array as="points">
              <mxPoint x="237" y="119.8" />
            </Array>
          </mxGeometry>
        </mxCell>
        <mxCell id="u5LdR0DTFu8338qAbrxq-293" value="" style="endArrow=blockThin;html=1;rounded=0;exitX=0.839;exitY=0.33;exitDx=0;exitDy=0;exitPerimeter=0;endFill=1;endSize=1;strokeWidth=0.3;entryX=0;entryY=1;entryDx=0;entryDy=0;" edge="1" parent="1" target="u5LdR0DTFu8338qAbrxq-260">
          <mxGeometry width="50" height="50" relative="1" as="geometry">
            <mxPoint x="232.25" y="144.18" as="sourcePoint" />
            <mxPoint x="247" y="153.18" as="targetPoint" />
            <Array as="points">
              <mxPoint x="238" y="144.18" />
            </Array>
          </mxGeometry>
        </mxCell>
        <mxCell id="u5LdR0DTFu8338qAbrxq-294" value="" style="endArrow=blockThin;html=1;rounded=0;exitX=0.839;exitY=0.33;exitDx=0;exitDy=0;exitPerimeter=0;entryX=-0.012;entryY=0.306;entryDx=0;entryDy=0;entryPerimeter=0;endFill=1;endSize=1;strokeWidth=0.3;" edge="1" parent="1">
          <mxGeometry width="50" height="50" relative="1" as="geometry">
            <mxPoint x="257.25" y="128.8" as="sourcePoint" />
            <mxPoint x="271.25" y="128.8" as="targetPoint" />
          </mxGeometry>
        </mxCell>
        <mxCell id="u5LdR0DTFu8338qAbrxq-295" value="" style="endArrow=blockThin;html=1;rounded=0;exitX=0.839;exitY=0.33;exitDx=0;exitDy=0;exitPerimeter=0;entryX=-0.012;entryY=0.306;entryDx=0;entryDy=0;entryPerimeter=0;endFill=1;endSize=1;strokeWidth=0.3;" edge="1" parent="1">
          <mxGeometry width="50" height="50" relative="1" as="geometry">
            <mxPoint x="257.25" y="136.42000000000002" as="sourcePoint" />
            <mxPoint x="271.25" y="136.42000000000002" as="targetPoint" />
          </mxGeometry>
        </mxCell>
        <mxCell id="u5LdR0DTFu8338qAbrxq-297" value="" style="endArrow=blockThin;html=1;rounded=0;exitX=0.839;exitY=0.33;exitDx=0;exitDy=0;exitPerimeter=0;endFill=1;endSize=1;strokeWidth=0.3;entryX=0.068;entryY=0.763;entryDx=0;entryDy=0;entryPerimeter=0;" edge="1" parent="1" target="u5LdR0DTFu8338qAbrxq-261">
          <mxGeometry width="50" height="50" relative="1" as="geometry">
            <mxPoint x="281.25" y="136.55" as="sourcePoint" />
            <mxPoint x="293" y="145" as="targetPoint" />
            <Array as="points">
              <mxPoint x="286" y="136.55" />
            </Array>
          </mxGeometry>
        </mxCell>
        <mxCell id="u5LdR0DTFu8338qAbrxq-298" value="" style="endArrow=blockThin;html=1;rounded=0;exitX=0.839;exitY=0.33;exitDx=0;exitDy=0;exitPerimeter=0;entryX=0;entryY=0.5;entryDx=0;entryDy=0;endFill=1;endSize=1;strokeWidth=0.3;" edge="1" parent="1" target="u5LdR0DTFu8338qAbrxq-280">
          <mxGeometry width="50" height="50" relative="1" as="geometry">
            <mxPoint x="305.5" y="133.11" as="sourcePoint" />
            <mxPoint x="319.5" y="133.11" as="targetPoint" />
          </mxGeometry>
        </mxCell>
        <mxCell id="u5LdR0DTFu8338qAbrxq-299" value="" style="endArrow=blockThin;html=1;rounded=0;exitX=0.839;exitY=0.33;exitDx=0;exitDy=0;exitPerimeter=0;endFill=1;endSize=1;strokeWidth=0.3;entryX=0;entryY=1;entryDx=0;entryDy=0;" edge="1" parent="1" target="u5LdR0DTFu8338qAbrxq-216">
          <mxGeometry width="50" height="50" relative="1" as="geometry">
            <mxPoint x="281" y="128.93" as="sourcePoint" />
            <mxPoint x="294.75" y="171.18" as="targetPoint" />
            <Array as="points">
              <mxPoint x="285.75" y="128.93" />
            </Array>
          </mxGeometry>
        </mxCell>
        <mxCell id="u5LdR0DTFu8338qAbrxq-303" value="" style="endArrow=blockThin;html=1;rounded=0;exitX=0.839;exitY=0.33;exitDx=0;exitDy=0;exitPerimeter=0;endFill=1;endSize=1;strokeWidth=0.3;entryX=0;entryY=0;entryDx=0;entryDy=0;" edge="1" parent="1" target="u5LdR0DTFu8338qAbrxq-226">
          <mxGeometry width="50" height="50" relative="1" as="geometry">
            <mxPoint x="328" y="83.18" as="sourcePoint" />
            <mxPoint x="341.75" y="125.43" as="targetPoint" />
            <Array as="points">
              <mxPoint x="332.75" y="83.18" />
            </Array>
          </mxGeometry>
        </mxCell>
        <mxCell id="u5LdR0DTFu8338qAbrxq-304" value="" style="endArrow=blockThin;html=1;rounded=0;exitX=0.839;exitY=0.33;exitDx=0;exitDy=0;exitPerimeter=0;endFill=1;endSize=1;strokeWidth=0.3;entryX=0;entryY=1;entryDx=0;entryDy=0;" edge="1" parent="1" target="u5LdR0DTFu8338qAbrxq-226">
          <mxGeometry width="50" height="50" relative="1" as="geometry">
            <mxPoint x="328" y="133.31" as="sourcePoint" />
            <mxPoint x="342" y="92.38" as="targetPoint" />
            <Array as="points">
              <mxPoint x="332.75" y="133.31" />
            </Array>
          </mxGeometry>
        </mxCell>
        <mxCell id="u5LdR0DTFu8338qAbrxq-305" value="" style="endArrow=blockThin;html=1;rounded=0;exitX=0.839;exitY=0.33;exitDx=0;exitDy=0;exitPerimeter=0;entryX=0;entryY=0.5;entryDx=0;entryDy=0;endFill=1;endSize=1;strokeWidth=0.3;" edge="1" parent="1" target="u5LdR0DTFu8338qAbrxq-235">
          <mxGeometry width="50" height="50" relative="1" as="geometry">
            <mxPoint x="351.75" y="109.44000000000001" as="sourcePoint" />
            <mxPoint x="364.25" y="109.33" as="targetPoint" />
          </mxGeometry>
        </mxCell>
        <mxCell id="u5LdR0DTFu8338qAbrxq-306" value="" style="endArrow=blockThin;html=1;rounded=0;exitX=0.001;exitY=0.833;exitDx=0;exitDy=0;exitPerimeter=0;entryX=-0.012;entryY=0.306;entryDx=0;entryDy=0;entryPerimeter=0;endFill=1;endSize=1;strokeWidth=1;" edge="1" parent="1" source="u5LdR0DTFu8338qAbrxq-321">
          <mxGeometry width="50" height="50" relative="1" as="geometry">
            <mxPoint x="162" y="166.79" as="sourcePoint" />
            <mxPoint x="176" y="166.79" as="targetPoint" />
          </mxGeometry>
        </mxCell>
        <mxCell id="u5LdR0DTFu8338qAbrxq-307" value="" style="endArrow=blockThin;html=1;rounded=0;exitX=0.004;exitY=0.886;exitDx=0;exitDy=0;exitPerimeter=0;entryX=-0.012;entryY=0.306;entryDx=0;entryDy=0;entryPerimeter=0;endFill=1;endSize=1;strokeWidth=1;" edge="1" parent="1" source="u5LdR0DTFu8338qAbrxq-321">
          <mxGeometry width="50" height="50" relative="1" as="geometry">
            <mxPoint x="162" y="174.41" as="sourcePoint" />
            <mxPoint x="176" y="174.41" as="targetPoint" />
          </mxGeometry>
        </mxCell>
        <mxCell id="u5LdR0DTFu8338qAbrxq-308" value="" style="endArrow=blockThin;html=1;rounded=0;exitX=0.839;exitY=0.33;exitDx=0;exitDy=0;exitPerimeter=0;entryX=-0.007;entryY=0.318;entryDx=0;entryDy=0;entryPerimeter=0;endFill=1;endSize=1;strokeWidth=0.3;" edge="1" parent="1" target="u5LdR0DTFu8338qAbrxq-206">
          <mxGeometry width="50" height="50" relative="1" as="geometry">
            <mxPoint x="186" y="166.79" as="sourcePoint" />
            <mxPoint x="200" y="166.79" as="targetPoint" />
          </mxGeometry>
        </mxCell>
        <mxCell id="u5LdR0DTFu8338qAbrxq-309" value="" style="endArrow=blockThin;html=1;rounded=0;exitX=0.839;exitY=0.33;exitDx=0;exitDy=0;exitPerimeter=0;entryX=-0.007;entryY=0.686;entryDx=0;entryDy=0;entryPerimeter=0;endFill=1;endSize=1;strokeWidth=0.3;" edge="1" parent="1" target="u5LdR0DTFu8338qAbrxq-206">
          <mxGeometry width="50" height="50" relative="1" as="geometry">
            <mxPoint x="186" y="174.41" as="sourcePoint" />
            <mxPoint x="200" y="174.41" as="targetPoint" />
          </mxGeometry>
        </mxCell>
        <mxCell id="u5LdR0DTFu8338qAbrxq-312" value="" style="endArrow=blockThin;html=1;rounded=0;exitX=0.839;exitY=0.33;exitDx=0;exitDy=0;exitPerimeter=0;entryX=-0.008;entryY=0.341;entryDx=0;entryDy=0;entryPerimeter=0;endFill=1;endSize=1;strokeWidth=0.3;" edge="1" parent="1" target="u5LdR0DTFu8338qAbrxq-170">
          <mxGeometry width="50" height="50" relative="1" as="geometry">
            <mxPoint x="232.25" y="166.82" as="sourcePoint" />
            <mxPoint x="268.25" y="167.03" as="targetPoint" />
          </mxGeometry>
        </mxCell>
        <mxCell id="u5LdR0DTFu8338qAbrxq-313" value="" style="endArrow=blockThin;html=1;rounded=0;exitX=0.839;exitY=0.33;exitDx=0;exitDy=0;exitPerimeter=0;entryX=0.004;entryY=0.717;entryDx=0;entryDy=0;entryPerimeter=0;endFill=1;endSize=1;strokeWidth=0.3;" edge="1" parent="1" target="u5LdR0DTFu8338qAbrxq-170">
          <mxGeometry width="50" height="50" relative="1" as="geometry">
            <mxPoint x="232.25" y="174.44" as="sourcePoint" />
            <mxPoint x="268.25" y="174.03" as="targetPoint" />
          </mxGeometry>
        </mxCell>
        <mxCell id="u5LdR0DTFu8338qAbrxq-314" value="" style="endArrow=blockThin;html=1;rounded=0;exitX=0.839;exitY=0.33;exitDx=0;exitDy=0;exitPerimeter=0;endFill=1;endSize=1;strokeWidth=0.3;" edge="1" parent="1">
          <mxGeometry width="50" height="50" relative="1" as="geometry">
            <mxPoint x="281" y="166.82" as="sourcePoint" />
            <mxPoint x="318" y="167" as="targetPoint" />
          </mxGeometry>
        </mxCell>
        <mxCell id="u5LdR0DTFu8338qAbrxq-315" value="" style="endArrow=blockThin;html=1;rounded=0;exitX=0.839;exitY=0.33;exitDx=0;exitDy=0;exitPerimeter=0;entryX=-0.003;entryY=0.723;entryDx=0;entryDy=0;entryPerimeter=0;endFill=1;endSize=1;strokeWidth=0.3;" edge="1" parent="1" target="u5LdR0DTFu8338qAbrxq-224">
          <mxGeometry width="50" height="50" relative="1" as="geometry">
            <mxPoint x="281" y="174.44" as="sourcePoint" />
            <mxPoint x="319.75" y="174" as="targetPoint" />
          </mxGeometry>
        </mxCell>
        <mxCell id="u5LdR0DTFu8338qAbrxq-316" value="" style="endArrow=blockThin;html=1;rounded=0;exitX=1.016;exitY=0.712;exitDx=0;exitDy=0;exitPerimeter=0;endFill=1;endSize=1;strokeWidth=1;entryX=0;entryY=1;entryDx=0;entryDy=0;" edge="1" parent="1" target="u5LdR0DTFu8338qAbrxq-231">
          <mxGeometry width="50" height="50" relative="1" as="geometry">
            <mxPoint x="375" y="170" as="sourcePoint" />
            <mxPoint x="387" y="187" as="targetPoint" />
            <Array as="points">
              <mxPoint x="376" y="170" />
              <mxPoint x="377" y="170" />
              <mxPoint x="378" y="170" />
              <mxPoint x="379" y="170" />
              <mxPoint x="380" y="170" />
            </Array>
          </mxGeometry>
        </mxCell>
        <mxCell id="u5LdR0DTFu8338qAbrxq-317" value="" style="endArrow=blockThin;html=1;rounded=0;exitX=1.016;exitY=0.712;exitDx=0;exitDy=0;exitPerimeter=0;endFill=1;endSize=1;strokeWidth=1;entryX=0;entryY=0;entryDx=0;entryDy=0;" edge="1" parent="1" target="u5LdR0DTFu8338qAbrxq-231">
          <mxGeometry width="50" height="50" relative="1" as="geometry">
            <mxPoint x="375" y="109.18" as="sourcePoint" />
            <mxPoint x="387" y="126.18" as="targetPoint" />
            <Array as="points">
              <mxPoint x="376" y="109.18" />
              <mxPoint x="377" y="109.18" />
              <mxPoint x="378" y="109.18" />
              <mxPoint x="379" y="109.18" />
              <mxPoint x="380" y="109.18" />
            </Array>
          </mxGeometry>
        </mxCell>
        <mxCell id="u5LdR0DTFu8338qAbrxq-318" value="" style="endArrow=blockThin;html=1;rounded=0;exitX=0.839;exitY=0.33;exitDx=0;exitDy=0;exitPerimeter=0;endFill=1;endSize=1;strokeWidth=0.3;entryX=0.155;entryY=0.297;entryDx=0;entryDy=0;entryPerimeter=0;" edge="1" parent="1" target="u5LdR0DTFu8338qAbrxq-229">
          <mxGeometry width="50" height="50" relative="1" as="geometry">
            <mxPoint x="328" y="166.82" as="sourcePoint" />
            <mxPoint x="365" y="167" as="targetPoint" />
          </mxGeometry>
        </mxCell>
        <mxCell id="u5LdR0DTFu8338qAbrxq-319" value="" style="endArrow=blockThin;html=1;rounded=0;exitX=0.839;exitY=0.33;exitDx=0;exitDy=0;exitPerimeter=0;entryX=0.097;entryY=0.839;entryDx=0;entryDy=0;entryPerimeter=0;endFill=1;endSize=1;strokeWidth=0.3;" edge="1" parent="1" target="u5LdR0DTFu8338qAbrxq-228">
          <mxGeometry width="50" height="50" relative="1" as="geometry">
            <mxPoint x="328" y="174.44" as="sourcePoint" />
            <mxPoint x="365" y="174" as="targetPoint" />
          </mxGeometry>
        </mxCell>
        <mxCell id="u5LdR0DTFu8338qAbrxq-320" value="" style="endArrow=blockThin;html=1;rounded=0;exitX=0.839;exitY=0.33;exitDx=0;exitDy=0;exitPerimeter=0;endFill=1;endSize=1;strokeWidth=0.3;entryX=0;entryY=0.5;entryDx=0;entryDy=0;" edge="1" parent="1" target="u5LdR0DTFu8338qAbrxq-237">
          <mxGeometry width="50" height="50" relative="1" as="geometry">
            <mxPoint x="351.75" y="169.91" as="sourcePoint" />
            <mxPoint x="363.75" y="170.09" as="targetPoint" />
          </mxGeometry>
        </mxCell>
        <mxCell id="u5LdR0DTFu8338qAbrxq-323" value="&lt;font style=&quot;font-size: 10px;&quot;&gt;two-highest comparison tree&lt;/font&gt;" style="text;html=1;align=center;verticalAlign=middle;whiteSpace=wrap;rounded=0;" vertex="1" parent="1">
          <mxGeometry x="239" y="57" width="131.5" height="12.25" as="geometry" />
        </mxCell>
        <mxCell id="u5LdR0DTFu8338qAbrxq-324" value="" style="endArrow=blockThin;html=1;rounded=0;endFill=1;endSize=1;strokeWidth=1;entryX=0.095;entryY=0.212;entryDx=0;entryDy=0;exitX=0;exitY=0.629;exitDx=0;exitDy=0;exitPerimeter=0;entryPerimeter=0;" edge="1" parent="1" target="u5LdR0DTFu8338qAbrxq-265">
          <mxGeometry width="50" height="50" relative="1" as="geometry">
            <mxPoint x="147" y="139.793" as="sourcePoint" />
            <mxPoint x="152.83058261758407" y="139.7505826175841" as="targetPoint" />
          </mxGeometry>
        </mxCell>
        <mxCell id="u5LdR0DTFu8338qAbrxq-326" value="" style="endArrow=blockThin;html=1;rounded=0;endFill=1;endSize=1;strokeWidth=1;entryX=0.091;entryY=0.216;entryDx=0;entryDy=0;exitX=0;exitY=0.629;exitDx=0;exitDy=0;exitPerimeter=0;entryPerimeter=0;" edge="1" parent="1" target="u5LdR0DTFu8338qAbrxq-264">
          <mxGeometry width="50" height="50" relative="1" as="geometry">
            <mxPoint x="147" y="115" as="sourcePoint" />
            <mxPoint x="158" y="115.207" as="targetPoint" />
          </mxGeometry>
        </mxCell>
        <mxCell id="u5LdR0DTFu8338qAbrxq-327" value="" style="endArrow=blockThin;html=1;rounded=0;endFill=1;endSize=1;strokeWidth=1;entryX=0.095;entryY=0.212;entryDx=0;entryDy=0;exitX=0;exitY=0.629;exitDx=0;exitDy=0;exitPerimeter=0;entryPerimeter=0;" edge="1" parent="1">
          <mxGeometry width="50" height="50" relative="1" as="geometry">
            <mxPoint x="147" y="122.34" as="sourcePoint" />
            <mxPoint x="158" y="122.547" as="targetPoint" />
          </mxGeometry>
        </mxCell>
        <mxCell id="u5LdR0DTFu8338qAbrxq-328" value="" style="endArrow=blockThin;html=1;rounded=0;endFill=1;endSize=1;strokeWidth=1;entryX=0.095;entryY=0.212;entryDx=0;entryDy=0;exitX=0;exitY=0.629;exitDx=0;exitDy=0;exitPerimeter=0;entryPerimeter=0;" edge="1" parent="1">
          <mxGeometry width="50" height="50" relative="1" as="geometry">
            <mxPoint x="147" y="97.75" as="sourcePoint" />
            <mxPoint x="158" y="97.957" as="targetPoint" />
          </mxGeometry>
        </mxCell>
        <mxCell id="u5LdR0DTFu8338qAbrxq-329" value="" style="endArrow=blockThin;html=1;rounded=0;endFill=1;endSize=1;strokeWidth=1;entryX=0.095;entryY=0.212;entryDx=0;entryDy=0;exitX=0;exitY=0.629;exitDx=0;exitDy=0;exitPerimeter=0;entryPerimeter=0;" edge="1" parent="1">
          <mxGeometry width="50" height="50" relative="1" as="geometry">
            <mxPoint x="147" y="89.42" as="sourcePoint" />
            <mxPoint x="158" y="89.627" as="targetPoint" />
          </mxGeometry>
        </mxCell>
        <mxCell id="u5LdR0DTFu8338qAbrxq-330" value="" style="endArrow=blockThin;html=1;rounded=0;endFill=1;endSize=1;strokeWidth=1;entryX=0.095;entryY=0.212;entryDx=0;entryDy=0;exitX=0;exitY=0.629;exitDx=0;exitDy=0;exitPerimeter=0;entryPerimeter=0;" edge="1" parent="1">
          <mxGeometry width="50" height="50" relative="1" as="geometry">
            <mxPoint x="147" y="72.54" as="sourcePoint" />
            <mxPoint x="158" y="72.747" as="targetPoint" />
          </mxGeometry>
        </mxCell>
        <mxCell id="u5LdR0DTFu8338qAbrxq-331" value="" style="endArrow=blockThin;html=1;rounded=0;endFill=1;endSize=1;strokeWidth=1;entryX=0.095;entryY=0.212;entryDx=0;entryDy=0;entryPerimeter=0;" edge="1" parent="1">
          <mxGeometry width="50" height="50" relative="1" as="geometry">
            <mxPoint x="149" y="65" as="sourcePoint" />
            <mxPoint x="158" y="65.207" as="targetPoint" />
          </mxGeometry>
        </mxCell>
        <mxCell id="u5LdR0DTFu8338qAbrxq-332" value="" style="endArrow=blockThin;html=1;rounded=0;endFill=1;endSize=1;strokeWidth=1;entryX=0.095;entryY=0.212;entryDx=0;entryDy=0;exitX=0;exitY=0.629;exitDx=0;exitDy=0;exitPerimeter=0;entryPerimeter=0;" edge="1" parent="1">
          <mxGeometry width="50" height="50" relative="1" as="geometry">
            <mxPoint x="147" y="147.55" as="sourcePoint" />
            <mxPoint x="158" y="147.757" as="targetPoint" />
          </mxGeometry>
        </mxCell>
        <mxCell id="u5LdR0DTFu8338qAbrxq-300" value="&lt;font style=&quot;font-size: 6px;&quot;&gt;$$\geq$$&lt;/font&gt;" style="text;html=1;align=center;verticalAlign=middle;whiteSpace=wrap;rounded=0;fillColor=none;strokeColor=none;" vertex="1" parent="1">
          <mxGeometry x="155.75" y="110.43" width="15" height="15" as="geometry" />
        </mxCell>
        <mxCell id="u5LdR0DTFu8338qAbrxq-175" value="&lt;font style=&quot;font-size: 6px;&quot;&gt;$$\geq$$&lt;/font&gt;" style="text;html=1;align=center;verticalAlign=middle;whiteSpace=wrap;rounded=0;fillColor=none;strokeColor=none;" vertex="1" parent="1">
          <mxGeometry x="155.75" y="85" width="15" height="15" as="geometry" />
        </mxCell>
        <mxCell id="u5LdR0DTFu8338qAbrxq-24" value="&lt;font style=&quot;font-size: 6px;&quot;&gt;$$\geq$$&lt;/font&gt;" style="text;html=1;align=center;verticalAlign=middle;whiteSpace=wrap;rounded=0;fillColor=none;strokeColor=none;" vertex="1" parent="1">
          <mxGeometry x="155.75" y="60" width="15" height="15" as="geometry" />
        </mxCell>
        <mxCell id="u5LdR0DTFu8338qAbrxq-335" style="edgeStyle=orthogonalEdgeStyle;rounded=0;orthogonalLoop=1;jettySize=auto;html=1;entryX=0;entryY=0.632;entryDx=0;entryDy=0;entryPerimeter=0;endSize=1;endArrow=blockThin;endFill=1;" edge="1" parent="1" target="u5LdR0DTFu8338qAbrxq-321">
          <mxGeometry relative="1" as="geometry">
            <mxPoint x="134" y="140" as="sourcePoint" />
          </mxGeometry>
        </mxCell>
        <mxCell id="u5LdR0DTFu8338qAbrxq-336" value="" style="endArrow=none;html=1;rounded=0;exitX=0.584;exitY=0.207;exitDx=0;exitDy=0;exitPerimeter=0;" edge="1" parent="1">
          <mxGeometry width="50" height="50" relative="1" as="geometry">
            <mxPoint x="102.99700000000001" y="146.07999999999998" as="sourcePoint" />
            <mxPoint x="109.22" y="133.29" as="targetPoint" />
          </mxGeometry>
        </mxCell>
        <mxCell id="u5LdR0DTFu8338qAbrxq-337" value="" style="endArrow=none;html=1;rounded=0;exitX=0.584;exitY=0.207;exitDx=0;exitDy=0;exitPerimeter=0;" edge="1" parent="1">
          <mxGeometry width="50" height="50" relative="1" as="geometry">
            <mxPoint x="137" y="146.07999999999998" as="sourcePoint" />
            <mxPoint x="143.22299999999998" y="133.29" as="targetPoint" />
          </mxGeometry>
        </mxCell>
      </root>
    </mxGraphModel>
  </diagram>
</mxfile>
